<?xml version="1.0" standalone="no"?>
<!DOCTYPE svg PUBLIC "-//W3C//DTD SVG 20010904//EN"
 "http://www.w3.org/TR/2001/REC-SVG-20010904/DTD/svg10.dtd">
<svg version="1.0" xmlns="http://www.w3.org/2000/svg"
 width="1008.000000pt" height="1280.000000pt" viewBox="0 0 1008.000000 1280.000000"
 preserveAspectRatio="xMidYMid meet">
<metadata>
Created by potrace 1.15, written by Peter Selinger 2001-2017
</metadata>
<g transform="translate(0.000000,1280.000000) scale(0.100000,-0.100000)"
fill="#ffffff" stroke="none">
<path d="M3445 12785 c-22 -9 -61 -16 -87 -15 -25 0 -49 -3 -52 -9 -4 -5 -31
-15 -61 -21 -31 -6 -92 -29 -138 -50 -68 -32 -99 -56 -181 -136 -84 -83 -105
-110 -137 -179 -105 -225 -158 -462 -159 -710 0 -206 13 -266 91 -425 68 -137
48 -114 375 -430 103 -99 156 -160 202 -229 34 -52 62 -100 62 -107 0 -6 11
-15 25 -18 22 -6 24 -10 19 -34 -9 -37 -49 -110 -83 -149 l-27 -33 -84 11
c-46 5 -120 9 -164 8 -45 -2 -129 3 -188 11 -96 12 -111 12 -150 -3 -33 -13
-78 -17 -186 -17 -79 0 -152 -5 -162 -10 -11 -6 -90 -15 -177 -20 -114 -8
-161 -14 -173 -25 -10 -9 -52 -19 -106 -24 -121 -12 -247 -36 -319 -61 -33
-11 -85 -23 -115 -26 -30 -4 -58 -11 -61 -16 -6 -9 -77 -32 -184 -61 -22 -6
-114 -47 -204 -91 l-165 -81 -140 -133 c-177 -167 -190 -192 -191 -357 l0
-110 50 -80 c27 -44 55 -83 61 -87 7 -5 47 -65 90 -135 114 -187 151 -241 173
-248 11 -3 43 -38 71 -76 107 -147 275 -304 481 -450 57 -40 152 -108 211
-151 59 -43 135 -95 170 -115 35 -20 86 -53 113 -74 45 -34 121 -77 361 -205
49 -26 84 -52 87 -63 2 -11 15 -21 28 -23 16 -2 30 -15 40 -37 9 -18 27 -39
40 -46 13 -8 24 -21 24 -31 0 -11 28 -39 67 -69 75 -56 97 -81 98 -110 0 -11
11 -38 24 -61 22 -39 23 -54 30 -275 20 -728 27 -1090 21 -1216 l-7 -141 -34
-7 c-42 -7 -102 -59 -120 -102 -31 -72 -9 -125 87 -213 l61 -55 -1 -290 c0
-160 -5 -356 -12 -438 l-12 -147 -76 0 c-96 0 -376 -34 -416 -51 -16 -7 -93
-16 -170 -20 -77 -4 -171 -15 -210 -23 -38 -9 -146 -23 -240 -31 -93 -9 -192
-22 -219 -31 -27 -8 -108 -19 -180 -23 -85 -4 -142 -12 -162 -22 -25 -13 -33
-13 -40 -3 -7 10 -26 10 -99 -2 -49 -7 -157 -14 -240 -14 -136 -1 -157 2 -222
25 -59 20 -91 25 -171 25 -65 0 -102 4 -110 12 -10 10 -15 10 -21 -1 -7 -10
-13 -10 -29 -2 -25 14 -62 14 -62 1 0 -5 -14 -25 -30 -43 -26 -30 -30 -42 -30
-93 1 -143 50 -271 173 -444 40 -58 86 -127 102 -153 15 -26 60 -80 99 -120
39 -40 103 -112 141 -162 40 -52 91 -104 119 -123 27 -18 72 -63 100 -100 91
-121 147 -181 178 -187 15 -4 36 -18 46 -32 60 -87 218 -216 432 -353 63 -40
147 -97 185 -125 91 -68 129 -87 159 -79 14 3 37 -1 56 -11 26 -14 40 -15 78
-6 117 26 264 40 467 45 135 4 274 14 359 25 76 11 252 25 390 32 158 7 267
16 294 25 24 8 48 12 53 8 6 -3 17 0 25 7 10 8 33 10 77 5 34 -4 85 -9 112
-12 33 -4 81 2 140 16 64 16 144 24 280 30 216 10 451 34 468 48 7 6 59 12
117 15 88 4 118 10 184 37 67 27 95 32 190 37 87 3 123 10 166 28 51 22 297
61 309 49 11 -11 13 -301 2 -339 -14 -51 -30 -75 -38 -57 -4 10 -9 9 -24 -4
-10 -9 -19 -12 -19 -6 0 16 -133 25 -240 15 -52 -4 -116 -6 -143 -3 -26 3 -51
2 -56 -3 -5 -5 -69 -10 -142 -11 -191 -4 -382 -17 -395 -28 -7 -5 -23 -4 -40
3 -41 15 -394 8 -412 -9 -7 -6 -28 -12 -46 -12 -40 0 -87 -46 -146 -145 -55
-91 -69 -107 -91 -100 -14 5 -24 -6 -45 -47 -18 -35 -70 -96 -163 -188 -75
-74 -177 -180 -226 -234 -49 -55 -111 -114 -137 -133 -32 -23 -63 -60 -94
-111 -26 -42 -59 -93 -75 -113 -16 -20 -40 -58 -54 -85 -14 -27 -47 -74 -73
-106 -26 -31 -62 -82 -81 -113 -45 -74 -100 -221 -101 -266 0 -20 -7 -42 -15
-49 -8 -7 -15 -23 -15 -36 0 -43 55 -90 173 -147 144 -70 197 -88 277 -94 36
-2 94 -16 130 -30 51 -20 80 -26 133 -24 128 4 163 5 287 1 96 -2 140 1 190
15 83 22 271 16 444 -15 100 -18 121 -19 135 -7 34 28 79 38 211 47 118 8 152
15 241 46 158 55 258 84 293 84 37 0 135 25 148 38 5 5 30 7 56 5 32 -4 76 3
139 22 95 27 112 28 523 24 36 -1 101 -1 145 -2 44 0 107 1 140 2 73 4 265
-13 320 -28 61 -17 548 -3 595 17 19 8 78 17 130 20 52 2 103 8 112 13 10 6
19 5 23 -1 15 -24 302 3 382 35 23 9 45 25 48 34 3 10 23 86 44 169 45 176 45
179 -40 264 -60 60 -252 157 -279 141 -10 -7 -22 -8 -31 -2 -8 5 -44 9 -80 9
-54 0 -75 5 -122 31 -31 17 -57 34 -57 37 0 4 -22 22 -49 41 -55 37 -74 62
-150 201 -61 111 -72 125 -130 167 -24 18 -53 45 -63 60 -23 34 -89 164 -108
213 -8 19 -31 50 -51 68 -21 17 -55 66 -77 107 -44 80 -111 176 -149 213 -15
14 -36 22 -58 22 -18 0 -61 9 -95 19 l-62 19 -111 -24 c-62 -13 -156 -27 -209
-31 l-98 -6 0 754 c0 415 3 804 7 866 l6 112 48 21 c64 27 105 35 113 21 12
-19 55 -12 96 15 48 32 115 36 202 10 42 -12 63 -13 83 -6 14 5 117 10 229 10
131 0 239 5 306 15 57 9 128 15 159 15 31 -1 72 3 91 9 18 6 77 18 130 27 52
8 156 35 231 59 83 27 175 49 234 56 63 8 99 17 102 26 4 10 9 11 19 2 8 -6
22 -8 36 -3 13 5 61 9 108 11 47 1 145 5 218 8 106 5 137 4 150 -7 10 -8 45
-15 82 -17 167 -7 209 -17 311 -70 85 -45 105 -51 157 -51 52 0 66 5 121 40
78 50 100 90 78 141 -8 20 -51 84 -96 142 -44 59 -81 113 -81 121 0 7 -17 26
-37 42 -21 15 -90 78 -153 140 -67 65 -129 116 -148 122 -38 13 -60 36 -102
107 -42 70 -39 103 13 166 78 96 102 109 219 124 63 8 118 22 143 34 21 12 51
21 66 21 14 0 50 8 80 19 31 10 75 22 100 26 24 4 58 15 74 25 17 10 62 26
100 35 195 45 199 47 322 170 62 62 117 125 123 139 5 14 21 92 35 173 33 191
45 223 104 273 58 48 79 91 64 129 -6 14 -24 55 -39 91 l-27 65 -5 810 c-8
1221 -7 1451 2 1561 9 98 8 103 -19 160 -15 32 -40 86 -55 120 -34 75 -81 117
-215 191 -55 31 -131 73 -168 94 -58 33 -82 40 -166 49 -114 12 -157 23 -181
45 -25 23 -287 71 -465 85 -55 4 -124 13 -154 19 -42 9 -56 8 -62 -1 -6 -9
-11 -9 -23 1 -11 9 -49 11 -148 7 -73 -3 -143 -5 -155 -5 -171 4 -256 1 -304
-11 -49 -12 -64 -12 -117 1 -49 12 -64 13 -74 3 -18 -17 -155 -45 -268 -53
-86 -7 -140 -18 -394 -82 l-78 -19 -68 64 c-38 35 -89 76 -113 90 -35 21 -46
34 -53 64 -8 33 -10 398 -13 2072 -1 572 -11 642 -105 735 -52 51 -224 153
-326 193 -30 12 -86 27 -125 33 -38 6 -73 18 -78 25 -4 7 -29 16 -55 20 -26 4
-57 14 -70 22 -16 10 -36 13 -67 9 -32 -5 -68 0 -130 18 -70 21 -107 25 -208
25 -67 0 -177 7 -244 17 -111 15 -127 15 -178 1 -50 -14 -59 -14 -99 0 -41 15
-49 15 -142 -8 -71 -17 -131 -24 -214 -25 -89 -1 -123 -6 -150 -20 -25 -13
-68 -20 -155 -24 l-120 -6 -65 38 c-36 21 -84 52 -107 68 -23 16 -50 29 -61
29 -11 0 -22 5 -24 11 -6 17 -215 48 -368 54 -110 5 -142 3 -175 -10z m512
-109 c61 -11 76 -19 105 -50 18 -20 39 -36 46 -36 8 0 46 -31 86 -68 39 -37
92 -85 118 -105 38 -30 58 -59 99 -142 64 -128 70 -191 28 -265 -72 -124 -95
-159 -105 -160 -6 0 -19 -9 -29 -20 -10 -11 -24 -20 -32 -20 -7 0 -29 -34 -49
-75 -40 -85 -59 -100 -101 -84 -15 6 -76 22 -135 34 -151 33 -276 74 -298 97
-13 14 -32 21 -62 22 -41 0 -43 -1 -41 -28 1 -17 18 -47 43 -75 22 -25 49 -64
60 -86 10 -22 31 -52 46 -65 14 -14 46 -65 71 -114 54 -108 54 -143 -1 -191
-19 -16 -44 -51 -56 -77 -15 -32 -40 -60 -83 -94 -34 -26 -80 -65 -103 -86
l-40 -38 -102 23 c-70 17 -111 32 -132 51 -17 14 -40 26 -51 26 -10 0 -41 21
-67 48 -27 26 -78 74 -114 107 -50 46 -69 71 -79 105 -7 25 -25 63 -39 85 -32
47 -50 97 -50 136 0 18 -7 32 -20 39 -18 10 -20 21 -20 124 0 184 28 297 141
560 44 103 70 149 97 176 20 20 62 63 92 96 41 45 68 65 104 77 28 10 59 26
70 36 25 23 174 73 181 61 3 -5 15 -7 28 -4 75 16 170 21 199 10 25 -9 32 -8
41 5 9 14 13 13 46 -3 21 -10 69 -24 108 -32z m1095 -83 c55 -4 82 -2 93 7 12
10 18 10 31 -1 10 -8 18 -9 22 -2 4 5 27 8 52 6 25 -2 114 -6 199 -8 85 -2
157 -7 160 -12 3 -4 29 -9 58 -9 31 -1 58 -8 67 -16 10 -11 49 -17 123 -22 78
-6 125 -14 169 -32 33 -13 70 -24 81 -24 11 0 37 -7 58 -16 21 -8 44 -13 52
-10 17 7 22 5 196 -97 139 -81 139 -81 178 -152 46 -82 49 -119 15 -191 -27
-59 -82 -124 -103 -124 -9 0 -41 -15 -72 -34 -88 -53 -219 -116 -241 -116 -11
0 -25 -9 -32 -20 -7 -11 -24 -20 -38 -20 -14 0 -47 -7 -74 -15 -27 -8 -69 -17
-92 -19 -23 -3 -57 -12 -75 -22 -21 -11 -65 -19 -117 -22 -45 -3 -85 -8 -88
-13 -3 -5 -22 -9 -43 -9 -21 0 -55 -7 -74 -15 -27 -11 -77 -15 -194 -15 -111
0 -166 -4 -183 -13 -18 -10 -32 -11 -47 -4 -16 7 -31 7 -48 -1 -15 -7 -25 -8
-25 -2 0 6 -7 10 -15 10 -8 0 -15 -4 -15 -9 0 -6 -12 -6 -31 -1 -20 6 -80 5
-160 -2 -112 -10 -140 -10 -217 5 -49 9 -117 20 -151 24 -61 6 -64 8 -78 42
-8 19 -20 61 -26 92 -10 54 -9 60 14 91 14 18 60 90 102 160 l77 127 -51 116
c-67 153 -69 169 -30 222 64 89 157 128 364 154 53 7 97 17 97 22 0 5 8 6 18
2 9 -4 52 -9 94 -12z m-2239 -530 c3 -5 -4 -48 -14 -98 -25 -115 -27 -304 -5
-397 20 -88 39 -131 75 -177 34 -42 46 -68 61 -129 9 -36 31 -63 128 -159 113
-112 125 -134 66 -119 -20 5 -139 106 -212 178 -39 40 -113 131 -125 155 -55
106 -83 294 -67 451 18 179 68 337 93 295z m3825 -428 c-1 -82 -3 -183 -7
-223 l-6 -73 -37 31 c-41 34 -97 60 -128 60 -11 0 -29 8 -40 18 -11 9 -28 24
-38 32 -10 9 -43 16 -87 18 -39 2 -117 6 -175 10 -189 13 -241 2 -192 -40 32
-28 84 -38 196 -38 144 0 244 -15 271 -40 11 -10 47 -27 79 -37 50 -15 61 -23
73 -50 7 -18 13 -52 13 -75 0 -40 -3 -45 -43 -70 -23 -14 -88 -42 -145 -62
-57 -20 -133 -53 -170 -73 -55 -31 -77 -38 -132 -39 -36 -2 -119 -14 -185 -29
-66 -15 -154 -27 -195 -28 l-74 -2 -6 30 c-6 35 -21 35 -83 3 -54 -27 -169
-50 -217 -42 -26 4 -45 2 -55 -6 -9 -8 -27 -10 -47 -6 -49 10 -57 10 -141 -2
-43 -7 -115 -12 -160 -12 -52 -1 -91 -6 -107 -15 -19 -11 -71 -14 -225 -15
-210 0 -312 13 -385 50 -38 19 -99 33 -225 50 -166 22 -215 33 -215 47 0 29
29 81 84 148 31 39 66 89 77 113 20 40 31 48 124 92 114 55 134 72 115 95 -19
23 -83 18 -150 -10 -33 -14 -64 -25 -69 -25 -19 0 -111 125 -127 173 -17 51
-14 67 9 49 8 -7 16 -9 20 -6 3 3 16 -1 29 -9 12 -8 55 -17 94 -21 41 -3 119
-22 185 -44 95 -32 139 -41 259 -51 80 -7 168 -19 196 -27 87 -23 266 -27 584
-10 206 11 338 22 408 36 56 11 122 20 146 20 55 0 132 23 160 48 17 16 40 21
113 24 85 4 99 7 172 45 43 23 103 48 133 56 67 17 177 80 255 146 l58 49 6
-56 c4 -32 7 -124 7 -207z m-192 -640 c3 -8 -1 -24 -10 -37 -36 -50 -4 -89 40
-48 13 13 24 29 24 37 0 22 28 15 45 -11 14 -22 15 -28 1 -60 -18 -43 -12 -66
18 -66 29 0 46 18 46 49 0 18 3 22 11 14 10 -10 16 -518 23 -1978 1 -308 6
-570 10 -582 11 -34 -12 -402 -30 -469 -8 -32 -23 -72 -33 -88 -10 -17 -22
-58 -26 -91 -8 -66 -42 -185 -53 -185 -4 0 -70 11 -146 25 -77 14 -166 25
-198 25 l-58 0 0 33 c0 45 -15 65 -37 51 -10 -6 -23 -22 -30 -35 l-12 -24
-300 0 c-278 0 -300 -1 -320 -19 -14 -13 -28 -16 -45 -12 -48 12 -171 8 -240
-8 -38 -9 -130 -25 -206 -36 -76 -10 -165 -28 -199 -40 -33 -11 -75 -20 -92
-20 -74 0 -161 -23 -208 -55 -32 -21 -66 -34 -100 -38 -61 -7 -132 -38 -245
-106 -45 -27 -97 -54 -116 -60 -20 -6 -40 -21 -45 -33 -6 -12 -30 -38 -55 -56
-26 -21 -49 -48 -56 -69 -7 -18 -25 -52 -40 -75 -16 -22 -36 -52 -45 -65 -15
-23 -17 -23 -22 -7 -22 74 -29 211 -26 515 l4 331 48 43 c26 24 75 62 109 85
58 38 62 40 72 22 6 -10 21 -31 34 -47 22 -27 23 -28 43 -10 26 25 21 57 -13
73 -39 18 -35 40 10 59 20 8 40 20 43 25 4 6 19 3 39 -7 49 -25 63 -14 56 43
l-7 47 53 43 c29 23 73 48 96 55 36 9 48 19 64 52 31 60 75 111 152 172 l69
56 18 -21 c22 -28 35 -28 50 -1 9 17 7 25 -13 46 l-23 25 40 35 c33 28 46 34
77 31 41 -4 60 15 47 47 -15 38 -8 51 72 150 153 189 230 298 274 389 25 51
45 97 45 103 0 7 4 23 10 38 l10 25 47 -24 c76 -37 231 -92 315 -111 l77 -17
6 -40 c7 -37 9 -39 34 -33 14 3 32 14 39 25 13 18 15 18 82 -1 66 -19 72 -19
105 -3 36 17 36 17 73 -13 34 -28 39 -29 59 -16 18 12 20 18 11 38 -9 20 -6
29 20 62 44 54 58 102 84 276 28 195 28 396 -1 592 -36 244 -71 338 -153 409
-27 23 -48 47 -48 53 0 7 -16 31 -36 53 -34 37 -40 70 -14 70 16 0 12 37 -6
55 -15 15 -18 15 -38 -4 -28 -26 -52 -26 -93 -1 -28 16 -33 26 -33 56 0 43 34
104 58 104 9 0 27 -12 39 -27 22 -27 23 -28 38 -9 8 11 15 32 15 48 0 32 -2
31 229 78 121 25 172 40 230 70 81 41 147 52 157 25z m-3166 -60 c5 3 10 1 10
-4 0 -6 -4 -11 -9 -11 -18 0 -41 12 -41 22 0 6 6 5 15 -2 8 -6 19 -9 25 -5z
m687 -72 l103 -18 0 -32 c0 -17 4 -34 8 -37 4 -3 29 9 55 25 30 20 53 29 66
24 19 -6 19 -7 1 -38 -24 -42 -12 -77 26 -77 25 0 26 2 22 45 -3 41 -1 45 19
45 36 0 53 -11 53 -35 0 -33 31 -68 53 -60 11 5 17 18 17 42 0 27 4 34 18 32
9 -2 43 1 74 5 76 10 93 3 107 -43 6 -21 18 -42 27 -45 22 -8 44 11 44 38 0
19 8 23 70 34 107 18 122 16 142 -17 24 -43 9 -58 -139 -137 -95 -51 -144 -85
-190 -131 -40 -40 -69 -60 -78 -57 -10 4 -15 0 -15 -14 0 -13 -20 -38 -52 -64
-80 -66 -126 -115 -148 -158 -23 -46 -52 -64 -86 -56 -23 6 -24 8 -9 29 29 41
13 98 -21 78 -46 -26 -46 -26 -24 -64 12 -21 18 -37 13 -37 -5 0 -51 11 -104
24 -52 13 -132 30 -177 36 l-82 12 -10 40 c-7 25 -19 43 -35 50 -22 10 -31 32
-50 121 l-6 28 29 -21 c23 -17 33 -19 55 -11 36 14 44 37 21 62 -18 20 -46 22
-86 4 -16 -6 -18 -1 -18 41 0 72 40 274 55 274 6 0 31 21 55 46 35 38 48 45
69 41 14 -3 72 -14 128 -24z m1023 -118 c-7 -8 -18 -15 -24 -14 -7 0 -6 2 2 6
6 2 10 9 6 14 -3 5 2 9 12 9 13 0 14 -3 4 -15z m268 -52 c3 -18 -4 -24 -35
-32 -21 -6 -46 -11 -56 -11 -50 0 -299 -152 -414 -252 -34 -29 -80 -68 -103
-87 -23 -18 -65 -70 -94 -115 -29 -44 -60 -87 -69 -95 -9 -7 -26 -44 -37 -82
-22 -73 -87 -234 -126 -310 l-23 -47 -73 23 -73 22 1 74 c1 50 9 93 24 133 22
57 212 353 237 369 6 4 51 41 99 82 48 41 108 85 133 98 25 12 71 41 101 64
71 53 121 77 255 125 202 73 248 80 253 41z m32 -4 c0 -6 -4 -7 -10 -4 -5 3
-10 11 -10 16 0 6 5 7 10 4 6 -3 10 -11 10 -16z m335 -115 c86 -18 126 -45
211 -143 37 -42 79 -87 95 -99 45 -36 56 -67 69 -192 7 -63 21 -142 31 -176
29 -94 42 -285 29 -422 -20 -198 -70 -312 -161 -360 -37 -20 -53 -23 -104 -18
-33 4 -69 6 -79 7 -10 0 -31 6 -46 14 -15 8 -81 26 -146 40 -66 15 -131 35
-146 46 -16 11 -44 19 -66 19 -31 0 -46 7 -75 35 -20 19 -46 35 -59 35 -13 0
-42 9 -65 20 l-43 19 0 63 c0 111 -43 220 -100 256 -37 23 -79 -15 -115 -105
-14 -35 -33 -63 -47 -70 -25 -14 -176 -17 -195 -5 -17 11 -89 178 -108 251
-30 117 -12 220 46 262 16 11 45 51 65 90 38 72 42 76 193 199 172 140 349
229 499 249 81 11 222 4 317 -15z m-2560 -401 c126 -3 192 -9 197 -17 5 -7 8
-6 8 4 0 13 1 13 10 0 8 -13 11 -13 19 -1 5 8 14 10 22 5 7 -4 45 -7 84 -6 45
1 97 -5 145 -18 41 -12 146 -27 233 -35 127 -11 169 -19 213 -39 42 -20 54
-30 54 -48 1 -13 9 -48 20 -78 11 -33 15 -59 10 -64 -6 -6 -53 -3 -122 7 -129
20 -185 21 -190 7 -2 -7 -34 -6 -98 5 -109 17 -257 20 -262 5 -2 -8 -40 -7
-121 1 -90 8 -137 8 -199 -1 -44 -6 -97 -9 -118 -5 -21 4 -41 2 -44 -3 -3 -5
-59 -7 -130 -4 -103 4 -132 2 -168 -12 -33 -14 -70 -17 -173 -16 -71 1 -152
-1 -180 -4 -97 -9 -150 -19 -162 -28 -7 -5 -45 -8 -85 -7 -53 1 -99 -5 -168
-23 -52 -15 -149 -36 -215 -48 -153 -28 -254 -55 -330 -87 -33 -14 -81 -28
-107 -32 -74 -11 -191 -75 -234 -126 -23 -29 -44 -45 -58 -45 -28 0 -102 -49
-156 -102 -53 -54 -103 -64 -138 -29 -22 22 -23 29 -17 86 5 49 12 68 32 86
14 13 47 56 74 96 65 96 159 169 253 197 24 7 71 32 106 56 47 32 86 48 158
66 52 13 102 30 111 37 9 8 38 17 64 20 26 2 56 12 66 21 10 9 32 16 50 16 19
0 34 6 37 15 4 10 21 15 53 15 26 0 73 7 104 15 32 8 70 15 84 15 15 0 63 11
107 24 77 23 110 27 358 45 59 5 114 14 122 20 10 8 15 9 18 1 2 -8 12 -8 33
1 19 7 82 11 165 11 74 0 151 3 170 8 19 5 51 7 70 4 19 -3 121 -7 225 -11z
m250 -374 c58 -8 131 -7 279 2 208 12 328 9 409 -12 l47 -11 0 -48 c0 -45 3
-50 36 -70 88 -55 191 -91 339 -120 33 -7 80 -24 105 -39 109 -66 249 -92 305
-55 13 8 42 47 65 85 22 38 44 69 49 69 4 0 16 -9 27 -21 15 -17 20 -40 22
-108 l4 -86 -42 -63 c-28 -41 -71 -85 -127 -130 -48 -37 -112 -88 -145 -113
-38 -31 -72 -49 -99 -53 -22 -4 -75 -24 -118 -45 -42 -22 -96 -44 -119 -51
-24 -6 -51 -19 -61 -29 -12 -12 -41 -20 -85 -25 -37 -4 -91 -16 -119 -26 -29
-11 -65 -20 -82 -20 -43 0 -175 -29 -208 -47 -31 -16 -167 -33 -275 -33 -45 0
-87 -6 -110 -16 -24 -11 -70 -18 -132 -19 -52 -1 -135 -8 -185 -14 -54 -8
-132 -10 -195 -7 -203 12 -255 12 -293 4 -24 -6 -58 -5 -92 2 -39 8 -60 8 -75
0 -13 -7 -26 -7 -38 -1 -10 5 -83 15 -163 21 -152 11 -318 31 -485 56 l-101
16 5 48 c5 55 -9 71 -39 45 -19 -18 -19 -18 2 -51 l20 -33 -38 6 c-40 5 -208
41 -232 49 -11 4 -9 10 8 27 12 14 21 36 21 55 0 36 -4 37 -43 20 -21 -10 -26
-18 -22 -33 19 -70 19 -67 -5 -63 -27 4 -36 17 -50 76 -12 48 -28 51 -48 8 -8
-15 -20 -30 -28 -33 -31 -12 -178 49 -287 119 -39 25 -46 34 -41 52 10 31 24
46 45 46 26 0 25 41 -1 65 -16 14 -23 16 -32 7 -36 -36 -38 24 -2 102 25 55
44 65 44 25 0 -23 27 -36 42 -21 7 7 6 19 -4 39 -13 27 -12 31 25 80 32 42 45
53 78 58 22 4 53 18 68 31 21 18 41 24 74 24 31 0 63 10 103 30 31 17 61 27
65 23 4 -4 9 -21 11 -38 2 -24 8 -30 28 -30 30 0 39 34 16 58 -9 9 -16 18 -16
20 0 16 90 37 155 37 40 0 77 5 80 10 3 6 16 10 28 10 13 0 33 7 46 16 13 9
40 18 60 18 20 1 74 12 120 25 57 16 97 21 123 17 23 -4 63 0 100 10 34 8 71
13 82 10 12 -3 39 1 61 9 23 8 79 14 131 15 l90 0 15 -32 c19 -43 36 -46 46
-8 15 57 49 63 361 65 193 1 276 5 284 13 7 7 16 8 23 2 7 -5 47 -15 90 -21z
m5148 -420 c11 -6 24 -6 37 1 14 7 26 8 39 0 11 -5 60 -10 110 -10 54 0 93 -4
97 -11 3 -6 15 -9 25 -6 11 3 23 -1 27 -9 6 -11 15 -11 45 -3 28 8 43 6 66 -5
17 -9 52 -15 86 -14 31 1 60 -3 63 -9 4 -6 23 -14 42 -18 19 -4 71 -18 115
-32 44 -13 120 -29 169 -34 72 -9 96 -16 119 -35 16 -14 85 -52 153 -84 78
-38 124 -65 124 -75 0 -8 19 -29 43 -45 49 -36 66 -68 66 -130 1 -62 -36 -135
-99 -195 l-51 -50 -20 24 c-10 13 -19 28 -19 35 -1 10 -118 67 -170 82 -14 4
-51 26 -82 50 -31 24 -65 44 -75 44 -10 0 -63 16 -118 36 -97 34 -192 64 -207
64 -15 0 -38 -60 -38 -100 0 -44 14 -80 31 -80 5 0 17 17 26 38 8 20 16 38 17
39 4 5 124 -40 154 -58 19 -11 41 -18 50 -14 23 9 85 -13 115 -40 38 -36 37
-98 -4 -185 -16 -35 -34 -80 -38 -100 -6 -32 -10 -35 -48 -38 -25 -2 -48 -11
-58 -23 -12 -12 -31 -19 -55 -19 -20 0 -40 -4 -45 -9 -6 -5 -40 -11 -77 -13
-42 -2 -74 -10 -85 -20 -10 -8 -24 -13 -32 -10 -8 2 -20 -3 -28 -14 -7 -10
-13 -12 -13 -6 0 17 -36 15 -110 -8 -36 -11 -94 -20 -131 -20 -36 0 -70 -5
-76 -11 -14 -14 -816 -18 -883 -5 -25 5 -85 10 -135 12 -64 1 -108 8 -150 24
-33 12 -96 25 -140 29 -98 10 -398 105 -500 159 l-70 37 -3 70 -3 70 67 13
c36 7 109 28 160 48 178 66 269 83 379 67 42 -5 49 -10 61 -40 28 -65 67 -53
78 25 l6 47 103 23 c117 26 134 27 140 10 3 -10 7 -10 19 -1 11 9 24 10 49 3
22 -7 59 -7 109 0 130 17 177 20 475 31 320 11 490 8 524 -10 18 -10 27 -9 47
4 34 22 30 42 -13 56 -49 17 -801 25 -816 10 -7 -7 -15 -7 -22 -1 -8 7 -22 5
-42 -5 -22 -11 -88 -16 -279 -21 -338 -8 -348 -8 -389 -33 -42 -25 -77 -26
-205 -6 -121 19 -184 19 -246 0 -53 -16 -54 -15 -115 48 -16 15 -38 27 -53 27
-34 0 -47 27 -39 86 6 47 8 50 57 74 28 14 89 47 136 72 65 36 103 50 160 58
41 7 88 18 104 26 24 12 31 12 38 2 5 -8 11 -9 16 -3 16 22 54 35 101 35 28 0
51 5 53 11 3 9 9 9 26 0 17 -9 36 -8 87 4 37 8 81 15 99 15 18 0 36 3 40 7 22
22 92 33 217 33 74 0 139 4 145 10 20 20 428 19 467 -1z m-3631 -350 c9 -18
18 -54 20 -78 3 -42 1 -46 -39 -75 -74 -55 -155 -96 -188 -96 -19 0 -72 -21
-130 -50 -54 -27 -105 -50 -113 -50 -9 0 -66 -20 -127 -45 -61 -25 -134 -48
-161 -51 -27 -3 -69 -16 -94 -29 -25 -12 -79 -28 -120 -35 -41 -7 -93 -20
-115 -30 -42 -18 -112 -34 -204 -46 -30 -3 -69 -13 -87 -20 -18 -8 -54 -14
-80 -14 -40 0 -45 2 -39 18 16 38 16 52 2 66 -12 12 -18 13 -32 2 -17 -12 -18
-25 -4 -75 8 -30 -51 -45 -216 -53 -372 -18 -521 -21 -542 -10 -11 6 -92 19
-179 27 -215 22 -285 32 -297 44 -6 6 -30 11 -53 11 -23 0 -64 4 -92 10 -29 5
-138 23 -244 40 -201 32 -301 56 -405 97 l-63 25 6 39 c6 37 5 39 -19 39 -18
0 -34 -10 -48 -29 -19 -25 -25 -28 -47 -20 -13 5 -38 19 -54 31 -26 18 -29 25
-23 54 4 24 2 35 -7 38 -7 2 -34 10 -61 16 -63 17 -125 73 -167 151 l-33 62
41 -5 c24 -4 65 -23 101 -48 81 -54 138 -80 180 -80 21 0 43 -8 57 -21 19 -18
56 -31 156 -53 23 -5 27 -12 30 -48 4 -58 31 -64 53 -13 14 36 16 37 52 30 21
-3 80 -19 130 -36 71 -22 126 -31 235 -39 79 -6 202 -17 273 -25 387 -43 1049
-59 1088 -26 12 9 17 10 17 2 0 -7 8 -10 18 -7 9 3 145 24 302 46 323 46 501
80 609 116 41 14 108 31 150 39 42 8 98 26 124 40 27 14 55 25 63 25 7 0 18 9
24 19 6 13 44 30 107 51 100 32 169 66 193 95 18 22 32 15 52 -26z m-167 -351
c0 -19 -101 -128 -119 -128 -7 0 -27 -21 -44 -47 -48 -74 -161 -193 -183 -193
-11 0 -23 -10 -29 -24 -5 -13 -21 -28 -37 -34 -15 -6 -75 -52 -133 -102 -158
-138 -472 -366 -489 -356 -4 3 -13 -9 -20 -25 -7 -17 -23 -34 -35 -39 -11 -4
-56 -33 -99 -64 -43 -31 -87 -60 -97 -66 -11 -6 -30 -29 -41 -52 -21 -41 -53
-73 -93 -93 -53 -27 -141 -238 -170 -408 -45 -254 -63 -866 -45 -1507 8 -267
13 -514 13 -550 -5 -473 -15 -754 -26 -767 -19 -23 -97 -12 -151 22 -42 27
-45 32 -51 85 -4 30 -2 139 3 240 23 430 9 2364 -19 2580 -26 208 -25 204
-116 318 -24 29 -45 61 -49 71 -3 11 -18 22 -34 26 -15 3 -45 24 -67 46 -21
23 -62 51 -89 63 -28 13 -62 36 -75 52 -17 19 -47 36 -88 49 -47 15 -70 29
-89 53 -21 29 -30 33 -63 31 -29 -2 -47 5 -87 33 -27 19 -61 39 -74 43 -49 15
-116 55 -188 110 -40 31 -88 63 -106 72 l-33 16 34 86 c33 84 34 86 15 105
-19 19 -20 18 -40 -15 -11 -18 -26 -58 -32 -87 -7 -29 -16 -55 -21 -58 -17
-11 -36 17 -48 67 -7 28 -17 52 -24 54 -6 2 -23 6 -38 9 -27 6 -28 8 -28 76
l0 70 38 -1 c20 0 71 -6 112 -12 70 -12 76 -14 89 -45 17 -37 28 -39 81 -12
64 33 97 26 78 -16 -8 -18 -8 -31 0 -49 12 -25 13 -25 42 -10 17 9 36 26 41
39 11 23 14 23 103 18 126 -7 131 -9 131 -67 0 -44 2 -48 27 -51 28 -3 29 0
42 56 4 21 11 25 43 25 46 0 53 -8 53 -63 0 -36 3 -43 17 -40 10 2 28 19 41
38 33 49 44 53 122 41 38 -6 85 -11 104 -11 25 0 36 -5 36 -15 0 -23 22 -63
38 -70 25 -9 41 13 35 49 l-5 33 203 6 c198 6 254 12 559 61 80 13 170 27 200
31 30 4 62 13 70 20 20 17 42 23 144 40 64 10 104 23 152 50 51 28 84 39 143
46 59 8 103 22 196 65 134 62 245 105 260 100 6 -1 10 -10 10 -18z m5151 -150
c42 -29 80 -89 102 -158 16 -50 17 -135 17 -990 0 -984 -2 -1015 -47 -1203
-19 -77 -25 -90 -57 -114 -37 -28 -65 -59 -91 -101 -27 -44 -445 -170 -653
-197 -59 -8 -118 -20 -130 -27 -12 -6 -56 -12 -99 -12 -73 -1 -104 7 -82 22
16 10 34 48 34 70 0 15 9 22 38 27 59 11 140 59 253 151 57 47 123 97 146 110
76 46 269 324 319 460 15 41 29 74 33 75 3 1 23 2 44 3 71 5 89 63 27 85 -17
5 -30 7 -30 4 0 -3 -7 0 -15 7 -19 16 -28 84 -18 149 8 54 9 55 43 55 39 1 47
16 31 59 -10 27 -11 27 -45 13 l-34 -14 -26 51 c-14 29 -40 88 -56 132 -24 65
-42 92 -90 141 -51 53 -66 63 -102 66 -24 3 -76 11 -116 19 -55 10 -77 10 -91
2 -13 -8 -21 -9 -29 -1 -15 15 -97 -17 -117 -44 -12 -18 -23 -21 -79 -19 -49
1 -92 -6 -167 -28 -57 -17 -109 -31 -116 -31 -8 0 -31 -13 -51 -29 -20 -16
-57 -35 -82 -42 -30 -9 -61 -30 -96 -64 -57 -57 -190 -274 -200 -326 -4 -19
-13 -46 -20 -61 -9 -17 -14 -61 -14 -116 0 -81 2 -90 20 -95 31 -8 45 20 42
84 -2 64 27 156 75 239 15 25 38 68 51 95 36 76 69 114 113 132 22 8 44 24 50
34 5 11 17 19 27 19 9 0 30 7 46 15 34 18 42 14 27 -13 -14 -26 -14 -55 0 -69
18 -18 68 4 75 33 4 17 17 27 43 34 20 6 56 21 81 33 35 17 46 28 48 50 3 25
7 27 47 27 24 0 47 5 50 10 12 20 25 -1 25 -41 0 -44 20 -60 52 -40 15 10 22
7 42 -12 23 -23 46 -82 46 -117 0 -36 -34 -140 -67 -208 l-37 -73 20 -20 21
-20 36 53 c56 80 80 158 81 259 l1 86 -51 84 c-75 125 -76 119 4 119 38 0 95
-5 128 -10 32 -6 73 -13 90 -15 26 -4 41 -20 89 -90 37 -53 61 -100 66 -127 4
-24 15 -70 24 -103 14 -49 16 -91 13 -230 -4 -162 -6 -173 -33 -225 -54 -107
-151 -236 -255 -340 -114 -114 -326 -284 -342 -274 -5 3 -18 -2 -29 -12 -17
-15 -22 -16 -29 -4 -6 11 -12 11 -22 2 -8 -6 -43 -14 -79 -16 -39 -3 -68 -11
-74 -20 -8 -10 -16 -11 -28 -4 -12 6 -28 6 -46 0 -22 -8 -32 -7 -43 4 -8 8
-54 21 -103 29 -48 8 -96 17 -106 20 -23 7 -24 -3 -4 -29 20 -27 19 -49 -5
-96 -11 -22 -20 -57 -20 -78 0 -36 -3 -40 -30 -44 -16 -3 -53 -1 -82 3 -130
19 -168 21 -180 11 -9 -7 -29 -8 -58 -2 -25 4 -79 14 -120 20 -41 6 -109 20
-152 31 -42 10 -102 19 -133 19 -69 0 -111 22 -148 78 -48 73 -58 151 -32 240
l15 51 50 -6 c56 -7 64 5 30 46 -14 17 -27 22 -45 19 -30 -6 -31 2 -10 82 8
32 14 69 13 82 -3 21 1 23 47 23 47 0 50 2 53 27 3 24 -1 28 -35 37 l-38 10 0
91 c0 88 7 105 29 74 10 -14 15 -13 39 6 32 26 24 52 -22 68 l-29 10 0 129 c1
164 -16 227 -78 289 -24 24 -49 41 -56 39 -7 -3 -21 7 -32 22 -10 16 -39 38
-65 50 -25 13 -73 37 -107 55 -33 18 -84 44 -112 57 -29 14 -52 28 -52 32 0 3
-23 9 -50 12 -28 3 -55 9 -61 13 -17 10 -2 137 27 222 13 41 56 135 95 210 69
135 109 241 109 289 0 20 -4 24 -26 21 -23 -3 -33 -22 -123 -248 -117 -294
-181 -440 -192 -440 -14 0 -18 35 -24 211 -8 202 -3 233 36 249 17 8 29 20 29
31 0 15 4 17 23 10 44 -17 89 -17 100 0 17 27 1 47 -71 83 -37 19 -73 41 -80
48 -18 22 24 97 100 176 l66 70 64 -19 c76 -25 222 -56 301 -65 32 -4 60 -11
63 -16 3 -4 9 -6 14 -3 5 3 24 -2 42 -11 23 -12 46 -15 86 -11 55 6 100 -5
114 -26 6 -9 10 -9 16 1 7 10 22 9 78 -4 56 -14 113 -17 297 -16 126 1 259 -3
295 -8 54 -7 71 -6 89 5 17 11 55 15 147 15 90 0 126 3 129 13 4 9 8 8 16 -3
6 -8 11 -10 11 -5 0 13 223 40 240 30 7 -4 14 1 17 14 3 12 8 21 12 21 22 1
287 52 336 65 32 9 73 26 90 39 16 13 57 31 90 40 83 24 213 88 255 124 42 38
45 38 86 10z m-3749 -1064 c46 -3 85 -9 88 -13 2 -4 37 -7 77 -6 45 1 86 -4
107 -12 19 -8 91 -21 160 -29 72 -9 144 -23 169 -34 49 -22 49 -25 11 -111
l-21 -45 -91 3 c-148 6 -171 11 -202 43 -33 34 -54 36 -183 19 -89 -12 -171 0
-205 29 -13 12 -22 13 -41 4 -17 -7 -27 -7 -35 1 -6 6 -11 7 -11 2 0 -6 -25
-10 -55 -10 -30 0 -55 3 -55 8 0 11 -38 9 -45 -3 -8 -13 -336 -13 -392 0 -30
7 -52 6 -80 -4 -21 -7 -78 -19 -128 -25 -117 -16 -165 -29 -165 -44 0 -9 -2
-9 -8 0 -10 16 -118 -15 -206 -58 -36 -18 -75 -29 -100 -29 -54 0 -137 -22
-173 -46 -15 -10 -34 -17 -41 -16 -8 2 -20 -2 -28 -9 -8 -6 -17 -9 -20 -6 -3
3 -21 -1 -39 -9 -19 -8 -54 -14 -78 -14 -29 0 -62 -11 -107 -34 -63 -34 -223
-86 -261 -86 -15 0 -19 7 -19 34 0 46 36 88 98 114 27 12 55 28 61 36 7 9 43
32 79 52 37 20 81 47 99 60 23 18 45 24 80 24 37 0 68 10 138 45 84 42 99 46
205 55 80 7 122 16 144 29 34 21 212 51 302 51 39 0 56 4 60 15 5 12 29 15
118 16 61 1 145 5 186 9 78 7 464 3 607 -6z m-2636 -19 c5 4 9 -2 9 -12 0 -10
16 -63 35 -118 38 -107 58 -243 70 -470 4 -66 13 -203 21 -305 29 -370 34
-469 34 -701 l0 -235 -82 -12 c-46 -6 -128 -18 -183 -26 -55 -9 -130 -16 -166
-16 l-66 0 -7 488 c-7 502 -1 680 30 825 8 40 17 90 20 112 27 199 120 389
229 465 30 21 41 25 43 14 2 -8 8 -12 13 -9z m3462 -134 c140 -36 294 -121
383 -210 27 -26 51 -41 67 -41 23 0 26 -6 37 -65 23 -121 -10 -233 -76 -261
-49 -20 -70 -6 -89 61 -14 45 -24 60 -65 90 -26 19 -51 42 -54 50 -3 8 -18 15
-33 15 -52 1 -112 39 -208 130 -52 49 -100 90 -105 90 -6 0 -10 14 -10 30 0
36 47 130 64 130 7 0 47 -9 89 -19z m-858 -105 c53 -22 95 -24 211 -11 92 10
104 -4 45 -52 -23 -20 -48 -48 -56 -64 -9 -16 -29 -44 -45 -62 -58 -67 -80
-264 -39 -352 12 -25 27 -45 33 -45 7 0 54 -20 104 -45 50 -25 103 -45 117
-45 25 0 25 1 10 29 -18 35 -61 69 -126 100 -75 35 -84 51 -83 140 2 125 56
236 147 302 37 27 47 30 85 24 34 -5 51 -2 79 15 38 22 80 21 95 -3 4 -7 8
-40 8 -74 0 -34 4 -64 10 -68 11 -7 34 28 50 78 7 23 18 37 28 37 9 0 52 -37
96 -81 l78 -82 -5 -70 c-4 -56 -12 -84 -44 -146 l-40 -76 -74 -18 c-45 -11
-102 -16 -144 -15 -69 3 -70 3 -67 -22 1 -14 4 -31 7 -37 5 -16 131 -17 225
-3 58 9 69 15 102 51 41 45 75 136 85 227 6 50 7 52 37 52 17 0 54 -11 82 -24
81 -38 124 -108 124 -200 l-1 -51 -185 -80 c-108 -47 -207 -83 -237 -87 -29
-4 -93 -23 -144 -42 -75 -29 -106 -36 -165 -36 -40 0 -80 -4 -88 -10 -9 -5
-17 -5 -20 1 -6 9 -51 -3 -140 -37 -39 -15 -84 -18 -325 -19 -154 0 -336 -4
-405 -9 -98 -6 -150 -5 -240 8 -63 10 -162 21 -220 26 -78 6 -107 12 -116 25
-7 9 -14 12 -17 8 -11 -18 -184 7 -351 52 -72 19 -160 42 -195 51 -38 9 -71
25 -81 37 -10 11 -55 39 -101 61 l-84 41 -3 47 c-3 45 -1 50 56 111 33 35 67
76 77 90 9 15 21 25 25 22 4 -3 27 2 51 11 24 8 74 22 110 30 40 9 98 34 150
64 67 40 93 50 129 50 26 0 51 5 58 12 9 9 12 9 12 1 0 -8 16 -5 48 8 26 10
114 30 195 43 94 16 159 32 180 45 37 22 143 44 302 61 61 6 127 15 149 20 23
5 49 5 64 -1 15 -6 38 -7 52 -3 41 11 171 21 225 16 28 -3 73 -14 100 -26z
m-2315 -445 c5 -11 19 -84 30 -163 12 -79 28 -176 37 -215 15 -68 15 -74 0
-91 -24 -26 -22 -31 22 -77 22 -22 42 -51 46 -65 6 -25 4 -25 -33 -22 -36 4
-40 1 -46 -23 -5 -21 -2 -32 14 -47 19 -18 23 -18 38 -5 36 31 40 28 77 -66
20 -50 47 -112 61 -136 13 -24 24 -45 24 -46 0 -2 -18 -6 -40 -10 -30 -5 -40
-11 -40 -25 0 -48 66 -65 85 -22 5 12 14 21 20 19 17 -6 35 -50 35 -86 0 -24
10 -44 35 -72 38 -43 135 -227 135 -258 0 -11 -4 -23 -10 -26 -5 -3 -10 -18
-10 -32 0 -25 2 -25 45 -20 38 6 48 3 65 -15 19 -21 21 -29 24 -93 1 -28 4
-30 43 -35 37 -4 47 -12 88 -64 25 -32 45 -62 45 -66 0 -4 11 -11 25 -14 14
-4 69 -50 122 -104 54 -54 126 -116 160 -137 73 -47 75 -59 11 -79 -29 -9 -22
-45 9 -52 20 -6 31 -2 45 16 10 12 18 28 18 36 0 23 12 17 85 -42 39 -31 85
-63 104 -72 33 -17 33 -18 28 -69 -4 -42 -2 -57 13 -75 22 -28 30 -22 45 39 7
27 16 48 21 48 5 -1 42 -16 83 -35 l73 -34 -4 -46 c-3 -31 -18 -68 -42 -109
-53 -87 -59 -91 -124 -91 -31 0 -69 -6 -83 -14 -20 -10 -31 -11 -45 -2 -12 7
-71 10 -167 8 l-149 -2 7 38 c5 34 3 40 -20 52 -20 11 -28 11 -38 1 -9 -9 -8
-18 6 -43 l18 -31 -68 5 c-37 3 -88 14 -113 23 -25 10 -65 19 -90 20 -72 2
-110 14 -110 35 0 10 5 22 10 25 12 7 13 42 3 48 -5 2 -20 7 -35 11 -23 5 -28
3 -28 -13 0 -36 -25 -45 -67 -24 -35 16 -38 21 -35 54 5 52 -20 58 -54 13
l-27 -35 -32 31 c-17 16 -40 30 -51 30 -34 0 -71 50 -82 107 -11 61 -7 70 33
75 33 3 45 29 25 53 -16 19 -90 19 -115 1 -16 -11 -19 -25 -18 -76 3 -77 38
-158 96 -219 43 -44 145 -101 182 -101 22 0 60 -23 85 -51 14 -17 196 -59 315
-74 28 -3 78 -15 112 -27 58 -19 71 -20 205 -9 89 6 166 7 205 2 34 -5 149 -7
256 -4 l194 6 6 -48 c11 -75 8 -158 -6 -185 -13 -25 -13 -25 -157 -25 -91 0
-152 -4 -164 -12 -13 -7 -28 -8 -43 -2 -30 11 -313 3 -326 -10 -7 -7 -15 -4
-26 9 -13 15 -46 21 -186 35 -173 16 -255 32 -335 65 -25 10 -67 21 -93 24
-30 4 -66 17 -91 34 -23 16 -60 32 -82 35 -58 9 -155 64 -233 132 l-68 60 -6
275 c-4 151 -12 448 -18 660 -5 212 -9 581 -8 820 2 239 3 514 3 611 1 133 4
180 15 192 17 21 18 21 31 -2z m200 -162 c77 -64 123 -89 161 -89 12 0 29 -7
38 -15 47 -44 113 -84 159 -95 29 -6 63 -21 76 -31 17 -13 40 -19 80 -19 37 0
97 -13 181 -40 105 -33 140 -40 210 -40 46 0 86 -4 90 -10 3 -5 18 -9 33 -9
53 1 338 -20 407 -30 87 -12 475 -6 570 8 39 6 133 15 210 20 99 6 156 15 194
30 31 11 65 18 78 15 28 -7 137 11 218 36 33 11 100 29 150 41 96 23 169 51
179 68 10 16 144 13 203 -4 186 -55 187 -305 3 -752 -34 -82 -66 -166 -72
-188 -6 -22 -25 -54 -42 -70 -18 -17 -68 -101 -114 -190 -86 -169 -132 -235
-162 -235 -10 0 -62 -48 -122 -111 -95 -103 -120 -123 -322 -256 -208 -137
-222 -145 -257 -139 -52 8 -65 -14 -49 -89 15 -74 8 -89 -53 -114 -103 -41
-198 -52 -227 -26 -10 9 -54 18 -118 24 -104 10 -153 27 -176 64 -9 14 -5 29
21 76 40 72 33 81 -57 81 -61 0 -72 3 -127 41 -33 22 -71 41 -84 41 -13 1 -39
14 -57 30 -18 15 -44 28 -57 28 -14 0 -25 4 -25 10 0 5 -33 32 -74 59 -41 28
-87 65 -102 83 -16 19 -42 40 -58 48 -41 20 -316 282 -395 374 -75 89 -83 100
-101 145 -13 32 -53 81 -68 81 -4 0 -18 26 -31 58 -13 31 -77 167 -141 302
-136 283 -183 403 -216 552 -23 101 -46 298 -34 298 3 0 39 -28 80 -61z m5750
-829 c108 -122 115 -154 48 -217 -148 -135 -307 -213 -470 -230 -35 -3 -72
-12 -83 -19 -36 -22 -204 -74 -239 -74 -19 0 -36 -5 -38 -12 -3 -8 -28 -11
-74 -11 -38 1 -94 -5 -124 -14 -44 -13 -63 -14 -100 -4 -31 8 -55 8 -80 1 -48
-14 -173 -13 -205 2 -20 9 -28 9 -34 0 -9 -15 -150 22 -167 44 -6 8 -27 14
-46 14 -20 0 -41 6 -47 14 -7 8 -27 17 -45 20 -19 4 -39 13 -45 20 -6 7 -28
16 -49 20 -20 3 -64 17 -97 31 -69 28 -98 31 -118 10 -11 -11 -16 -12 -19 -3
-4 10 -14 9 -47 -2 -42 -14 -45 -13 -109 21 -92 48 -172 125 -172 167 0 22 4
30 13 26 7 -2 31 9 52 26 41 33 41 33 160 55 100 19 139 19 192 0 81 -28 298
-47 538 -46 50 0 108 -1 130 -1 67 -2 127 -1 190 4 33 3 63 1 66 -5 4 -5 15
-4 29 3 13 7 63 11 125 11 83 -1 104 2 109 14 4 10 20 15 51 15 27 0 57 7 72
18 18 11 60 20 128 25 132 11 145 13 178 26 16 6 34 11 42 11 7 0 15 5 17 12
2 6 22 13 44 14 21 2 66 14 99 28 68 29 89 26 125 -14z m-6161 -335 c85 -90
122 -199 106 -321 -6 -52 -8 -55 -53 -78 -26 -13 -60 -38 -76 -55 -26 -27 -37
-31 -81 -31 -64 0 -140 22 -227 66 l-68 34 0 143 c0 78 -3 165 -6 193 -6 51
-6 51 30 68 25 12 50 16 74 12 20 -3 64 0 97 8 33 7 81 14 106 15 44 1 49 -2
98 -54z m-759 -45 c0 -44 -4 -80 -8 -80 -5 0 -18 9 -30 20 -42 39 -43 107 -2
127 14 7 28 13 33 13 4 0 7 -36 7 -80z m4395 -66 c20 -8 105 -24 189 -35 83
-11 156 -21 162 -23 6 -2 37 2 70 10 106 25 184 16 314 -35 30 -12 60 -28 66
-36 6 -8 50 -21 99 -29 60 -9 91 -19 97 -30 5 -9 15 -16 22 -16 7 0 21 -9 30
-19 13 -14 38 -21 92 -26 l74 -7 57 -62 c55 -59 145 -188 200 -286 20 -36 49
-63 124 -114 54 -37 114 -86 134 -109 20 -23 77 -88 128 -145 94 -105 167
-211 167 -244 0 -13 -15 -26 -47 -40 -63 -28 -162 -21 -199 13 -31 29 -18 46
41 55 24 3 52 15 61 25 16 18 16 21 -1 60 -19 42 -158 179 -182 179 -31 0 -85
-35 -90 -60 -3 -14 -19 -34 -36 -45 -23 -15 -36 -35 -51 -80 -11 -33 -20 -61
-22 -63 -1 -2 -26 4 -56 13 -38 12 -127 20 -323 28 -407 17 -434 16 -472 -12
-26 -20 -35 -22 -47 -12 -12 10 -17 9 -27 -8 -10 -14 -20 -18 -40 -14 -15 3
-30 0 -33 -6 -4 -6 -20 -11 -35 -11 -16 0 -42 -7 -57 -15 -18 -9 -57 -15 -106
-15 -50 0 -78 -4 -80 -12 -4 -10 -227 -40 -293 -39 -11 1 -103 4 -205 9 -272
12 -307 33 -242 141 l27 46 0 235 c0 308 2 315 133 410 62 45 124 130 266 363
26 42 49 77 50 77 2 0 20 -7 41 -16z m-3889 -433 c34 -16 65 -34 68 -40 4 -6
24 -11 44 -11 48 -1 84 -21 170 -95 62 -53 71 -65 77 -103 10 -70 0 -94 -75
-160 -42 -38 -73 -75 -79 -95 -7 -21 -22 -39 -39 -47 -22 -11 -290 -33 -300
-25 -5 4 -7 222 -4 418 l2 187 38 0 c20 0 65 -13 98 -29z m3273 -348 c8 -26 7
-71 -1 -151 -12 -105 -15 -116 -40 -137 -15 -13 -30 -36 -34 -51 -3 -16 -16
-37 -28 -47 -160 -137 -343 -227 -460 -227 l-36 0 1 78 c0 52 3 71 9 57 7 -17
9 -16 9 10 1 29 5 31 68 49 66 19 175 85 241 146 28 26 32 36 32 79 0 29 5 53
14 60 8 6 23 34 35 61 12 28 27 50 34 50 7 0 32 14 57 30 62 41 86 40 99 -7z
m2315 -265 c22 -31 21 -68 -1 -68 -35 0 -46 16 -39 54 8 42 18 45 40 14z
m-5182 -132 c17 -36 36 -62 40 -59 5 3 17 -2 26 -10 9 -9 51 -34 92 -57 41
-24 82 -50 91 -60 10 -9 37 -20 62 -23 26 -4 65 -19 89 -36 27 -19 76 -37 133
-51 50 -11 107 -27 128 -35 20 -8 76 -17 125 -21 138 -9 177 -20 215 -64 17
-20 50 -47 73 -58 60 -31 135 -92 274 -227 69 -66 157 -141 195 -167 39 -25
80 -60 92 -76 12 -16 65 -58 117 -93 62 -42 95 -70 96 -82 0 -11 -23 -40 -52
-67 -40 -37 -64 -50 -106 -60 -66 -14 -92 -38 -92 -84 0 -70 74 -116 191 -119
59 -2 64 -4 67 -26 7 -50 -5 -69 -50 -76 -24 -4 -128 -27 -233 -51 -104 -24
-239 -49 -300 -55 -60 -6 -122 -17 -137 -25 -92 -49 -326 -85 -501 -76 -95 4
-109 3 -121 -13 -11 -15 -37 -19 -183 -25 -106 -5 -180 -13 -194 -21 -17 -9
-85 -13 -224 -15 -136 -2 -214 -7 -245 -17 -29 -9 -79 -13 -137 -11 -53 2 -95
-1 -98 -7 -4 -5 -56 -8 -123 -7 -66 1 -126 -3 -137 -9 -17 -9 -185 -18 -488
-26 -63 -2 -91 -7 -97 -17 -7 -12 -13 -12 -33 -1 -15 8 -30 10 -39 5 -7 -5
-51 -12 -98 -15 -47 -3 -123 -12 -168 -20 -76 -12 -86 -12 -114 4 -17 10 -51
17 -78 17 -47 0 -52 3 -129 74 -58 55 -89 77 -116 82 -20 3 -39 13 -42 21 -3
8 -36 34 -72 57 -36 24 -97 68 -134 99 -37 31 -83 61 -102 67 -21 7 -47 30
-73 64 -22 29 -65 69 -94 89 -34 22 -74 63 -108 109 -29 40 -110 129 -180 198
-138 136 -355 391 -431 508 -111 170 -177 360 -154 449 l6 26 152 -6 c127 -4
171 -10 270 -36 65 -17 124 -28 130 -24 7 4 107 6 222 4 184 -3 216 -1 250 15
52 22 268 34 426 23 82 -6 127 -5 150 3 19 6 93 15 164 18 83 4 145 13 170 23
30 12 75 16 189 17 l149 0 -7 -52 c-4 -32 -14 -58 -24 -65 -35 -25 -43 -35
-49 -64 -4 -19 -16 -35 -35 -45 -15 -8 -65 -44 -110 -80 -50 -41 -99 -71 -127
-80 -26 -7 -70 -31 -99 -52 -30 -23 -69 -42 -91 -46 -21 -3 -68 -20 -105 -37
-58 -27 -70 -37 -91 -80 -32 -62 -31 -71 5 -124 36 -52 66 -75 98 -75 14 0 36
-13 51 -29 19 -21 34 -28 48 -25 12 3 34 -1 49 -9 16 -8 78 -27 138 -41 59
-15 121 -33 137 -41 18 -10 30 -11 34 -4 5 7 12 6 22 -3 13 -10 97 -14 367
-15 193 -2 374 -3 401 -3 28 -1 122 2 210 6 125 5 168 10 195 24 46 24 77 29
240 39 113 7 159 16 280 51 152 45 229 77 268 113 60 55 80 158 44 226 -14 28
-27 37 -77 52 -33 10 -72 19 -87 19 -16 0 -59 21 -102 49 -48 31 -98 54 -142
65 -78 20 -162 66 -254 141 -74 59 -100 75 -128 75 -22 0 -102 82 -102 104 0
18 54 73 78 80 9 3 45 10 79 15 35 5 71 14 80 20 10 6 30 11 46 11 24 0 31 -8
59 -64z m2078 33 l125 -12 1 -1046 c0 -1033 6 -1252 35 -1348 6 -17 35 -71 66
-120 30 -48 83 -146 118 -218 51 -104 80 -149 145 -225 46 -52 95 -114 111
-137 16 -23 49 -56 72 -72 23 -16 71 -58 106 -94 61 -63 63 -66 56 -104 -8
-51 -38 -100 -70 -115 -14 -6 -25 -15 -25 -19 0 -4 -19 -7 -42 -7 -24 0 -105
-6 -180 -15 -94 -10 -150 -12 -178 -6 -35 8 -56 5 -138 -22 -87 -29 -114 -33
-252 -38 -125 -5 -161 -10 -183 -23 -37 -25 -122 -23 -259 6 -75 16 -153 25
-233 27 -66 2 -127 6 -135 11 -8 4 -53 17 -100 28 -90 22 -130 48 -130 86 0
39 11 54 61 80 27 13 49 31 49 39 0 8 18 26 41 40 66 42 126 105 185 192 30
44 80 102 110 129 31 26 101 104 157 173 55 69 123 147 152 173 35 32 57 62
69 95 10 26 33 89 52 138 l34 90 10 565 c5 311 10 837 10 1168 0 570 1 603 18
599 9 -3 73 -11 142 -18z m-2955 1 c4 -6 25 -20 48 -32 58 -29 138 -30 196 -1
25 13 47 20 49 18 11 -10 -25 -79 -50 -98 -34 -25 -130 -34 -180 -18 -42 14
-76 47 -87 87 -12 42 5 74 24 44z m466 -148 c32 -33 111 -95 176 -140 65 -45
138 -98 162 -119 43 -36 141 -80 276 -124 34 -11 72 -30 87 -42 14 -12 64 -35
111 -52 51 -17 88 -36 90 -45 13 -58 -60 -144 -132 -155 -25 -4 -109 -25 -186
-47 -108 -30 -168 -41 -265 -48 -152 -11 -192 -18 -203 -37 -7 -11 -12 -12
-24 -2 -10 9 -16 10 -21 2 -14 -22 -412 -35 -701 -24 -465 19 -448 17 -485 40
-23 15 -50 21 -88 21 -32 0 -62 6 -74 15 -10 8 -38 15 -61 15 -34 0 -46 5 -59
24 -10 16 -38 32 -78 46 -35 11 -72 29 -84 40 -18 17 -19 23 -9 49 12 31 23
37 190 102 32 12 77 37 99 56 24 20 51 33 68 33 18 0 49 17 91 51 34 27 115
82 178 121 215 132 242 151 257 180 9 18 22 28 38 28 12 0 33 11 46 25 13 14
30 25 37 25 7 0 33 -18 58 -41 40 -37 50 -41 107 -45 86 -7 159 -8 182 -3 23
5 96 70 96 86 0 10 14 16 54 22 5 0 35 -25 67 -57z m2259 -442 c0 -85 -5 -173
-11 -195 -11 -37 -66 -105 -87 -105 -25 0 -138 90 -254 202 -104 101 -129 131
-139 166 -15 52 -6 74 37 84 16 4 125 6 241 5 l213 -2 0 -155z m6 -724 c10
-43 1 -71 -25 -74 -23 -4 -24 -2 -18 35 4 21 7 44 7 51 0 22 29 13 36 -12z
m-101 -55 c3 -5 1 -12 -5 -16 -5 -3 -10 1 -10 9 0 18 6 21 15 7z m1062 -776
c62 -17 63 -19 113 -96 28 -43 96 -154 151 -246 121 -201 192 -302 280 -397
36 -39 69 -81 73 -93 4 -13 35 -62 70 -110 34 -49 66 -94 70 -100 12 -22 -12
-52 -42 -52 -15 1 -52 -8 -82 -20 -30 -11 -68 -20 -83 -21 -25 0 -127 -36
-169 -60 -49 -27 -168 -2 -168 35 0 8 -14 22 -30 30 -17 9 -68 50 -113 92 -45
42 -96 84 -113 95 -18 10 -37 32 -44 47 -6 16 -29 43 -49 59 -59 48 -222 309
-267 430 -53 140 -11 305 97 383 71 51 181 59 306 24z m-1545 -42 c7 -4 36 -6
64 -5 89 6 351 -60 423 -107 22 -14 23 -19 19 -92 -5 -83 -27 -136 -66 -155
-12 -6 -44 -43 -72 -82 -27 -39 -105 -131 -172 -205 -68 -73 -138 -150 -156
-170 -18 -20 -37 -37 -42 -37 -5 0 -32 -20 -60 -45 -28 -25 -55 -45 -59 -45
-5 0 -42 -25 -83 -56 -40 -30 -85 -58 -99 -61 -17 -3 -39 -25 -67 -66 -56 -83
-61 -115 -29 -169 30 -50 113 -135 123 -125 4 4 15 0 24 -8 10 -9 54 -20 103
-26 48 -7 87 -15 87 -19 0 -4 -17 -22 -37 -40 -34 -30 -70 -49 -304 -157 -47
-22 -101 -53 -120 -70 -19 -16 -58 -35 -89 -43 -30 -7 -73 -23 -96 -35 -41
-22 -158 -38 -301 -40 -34 -1 -68 -6 -75 -12 -18 -14 -157 -27 -253 -24 -88 4
-232 4 -267 0 -34 -3 -367 67 -429 90 -72 27 -143 73 -165 107 -17 25 -17 30
-1 91 31 119 87 233 147 299 35 38 77 104 114 175 33 63 74 128 93 145 18 18
33 40 33 50 0 11 17 29 42 44 22 14 77 67 121 118 43 51 99 106 122 122 24 16
52 45 64 63 11 19 49 58 83 87 77 65 85 73 208 230 165 211 241 265 381 271
35 1 157 -1 272 -6 146 -5 207 -5 207 3 0 6 13 9 33 6 17 -2 61 0 97 5 70 10
162 8 182 -6z m2793 -1153 c11 -9 51 -37 88 -60 75 -47 97 -79 97 -139 0 -30
-7 -49 -29 -73 -16 -19 -32 -51 -36 -73 -11 -66 -16 -76 -41 -85 -40 -15 -304
-40 -427 -40 -62 0 -117 -4 -122 -9 -14 -14 -348 -43 -505 -45 -107 -1 -145 3
-184 17 -27 10 -70 17 -95 17 -25 -1 -65 4 -87 11 -35 11 -56 10 -136 -5 -90
-17 -99 -17 -172 -1 -58 13 -100 16 -164 11 -48 -4 -154 -11 -237 -16 -82 -5
-170 -14 -195 -19 -25 -6 -76 -10 -113 -11 -49 0 -84 -7 -126 -25 -39 -16
-100 -29 -181 -38 -93 -11 -128 -19 -150 -36 -16 -11 -39 -21 -52 -21 -13 0
-74 -9 -137 -20 -142 -25 -151 -25 -130 -5 8 8 46 21 84 29 39 7 102 29 142
48 48 24 93 37 138 42 72 7 195 52 253 91 27 19 50 25 87 25 36 0 82 12 156
41 98 39 113 42 244 50 79 4 193 18 260 32 98 21 129 24 170 16 38 -7 60 -6
90 5 22 8 130 24 240 36 188 21 235 31 235 48 0 4 43 8 96 9 94 1 97 2 129 33
32 31 138 70 192 70 12 0 28 6 35 13 7 6 22 13 33 14 11 1 61 16 110 34 75 27
106 32 182 34 51 0 97 5 102 10 17 17 134 5 156 -15z m-3170 -670 c3 -5 -1
-10 -9 -10 -9 0 -16 5 -16 10 0 6 4 10 9 10 6 0 13 -4 16 -10z m-53 -22 c-6
-6 -15 -8 -19 -4 -4 4 -1 11 7 16 19 12 27 3 12 -12z"/>
<path d="M5649 11497 c0 -1 -1 -17 -2 -35 -2 -23 2 -32 14 -32 8 0 21 -6 27
-12 10 -10 15 -10 22 2 13 21 12 46 -2 57 -11 9 -57 24 -59 20z"/>
<path d="M6270 10921 c-5 -11 -10 -31 -10 -45 0 -21 5 -26 25 -26 37 0 53 46
26 71 -25 24 -28 24 -41 0z"/>
<path d="M6406 10804 c-33 -32 -14 -77 30 -72 31 3 40 22 30 64 -7 28 -37 32
-60 8z"/>
<path d="M5942 10798 c-15 -15 -16 -38 -2 -38 6 0 10 -7 10 -15 0 -8 5 -15 10
-15 6 0 10 5 10 10 0 18 31 10 56 -15 31 -31 74 -34 74 -6 0 46 -18 68 -64 80
-57 14 -79 14 -94 -1z"/>
<path d="M6150 10750 c-26 -26 -25 -31 7 -54 31 -23 53 -13 68 28 7 21 6 29
-5 36 -24 15 -48 12 -70 -10z"/>
<path d="M6542 10748 c-7 -7 -12 -28 -12 -48 0 -65 40 -81 67 -25 13 28 14 39
5 60 -12 27 -40 33 -60 13z"/>
<path d="M6278 10733 c-14 -3 -18 -15 -18 -44 0 -39 1 -40 33 -37 29 3 32 6
30 32 -3 35 -21 54 -45 49z"/>
<path d="M6387 10613 c-8 -40 2 -53 39 -53 29 0 34 3 34 24 0 14 -10 30 -25
40 -34 22 -42 20 -48 -11z"/>
<path d="M6022 10564 c-17 -19 -12 -54 10 -68 13 -8 23 -5 43 14 31 29 32 50
2 50 -13 0 -27 4 -32 9 -6 6 -15 4 -23 -5z"/>
<path d="M6178 10569 c-23 -13 -23 -32 2 -54 19 -17 20 -17 39 6 28 33 27 59
-1 59 -13 0 -31 -5 -40 -11z"/>
<path d="M6562 10544 c-14 -9 -22 -26 -22 -44 0 -46 10 -60 41 -60 29 0 29 0
29 60 0 65 -8 72 -48 44z"/>
<path d="M6266 10504 c-17 -45 6 -93 39 -80 18 7 20 67 3 84 -17 17 -35 15
-42 -4z"/>
<path d="M6365 10460 c-3 -11 1 -30 11 -45 17 -25 34 -33 34 -15 0 6 7 10 16
10 12 0 15 6 10 23 -3 12 -6 28 -6 35 0 21 -58 15 -65 -8z"/>
<path d="M6030 10421 c0 -17 5 -31 12 -31 6 0 20 -8 30 -17 17 -15 21 -15 29
-3 5 8 8 29 7 45 -3 27 -7 30 -40 33 -36 3 -38 2 -38 -27z"/>
<path d="M6211 10351 c-40 -40 -15 -75 35 -52 20 9 25 17 22 38 -4 35 -30 41
-57 14z"/>
<path d="M6535 10329 c-4 -6 -4 -25 -1 -43 5 -28 11 -33 36 -34 29 -1 30 1 30
44 0 42 -1 44 -29 44 -17 0 -33 -5 -36 -11z"/>
<path d="M6317 10324 c-9 -10 -9 -56 1 -72 6 -9 14 -6 32 13 19 20 22 30 14
43 -12 19 -36 27 -47 16z"/>
<path d="M6083 10294 c-9 -25 10 -69 32 -72 11 -1 28 3 38 10 15 11 16 17 5
46 -10 26 -18 32 -41 32 -16 0 -30 -7 -34 -16z"/>
<path d="M6432 10208 c3 -31 5 -33 47 -36 41 -3 43 -2 37 20 -3 13 -6 29 -6
36 0 7 -15 12 -41 12 -39 0 -40 -1 -37 -32z"/>
<path d="M6553 10175 c-13 -12 -23 -32 -23 -44 0 -17 6 -21 35 -21 41 0 53 18
39 58 -12 33 -24 35 -51 7z"/>
<path d="M6175 10128 c-34 -19 -43 -41 -26 -67 7 -10 16 -11 42 -3 19 6 46 13
62 16 22 5 27 12 27 36 0 29 -2 30 -42 30 -24 0 -52 -6 -63 -12z"/>
<path d="M6387 10064 c-18 -24 -18 -26 -1 -45 26 -29 50 -24 63 12 9 27 8 34
-7 45 -24 19 -35 17 -55 -12z"/>
<path d="M6527 9973 c-4 -3 -7 -21 -7 -40 0 -32 1 -33 41 -33 24 0 38 4 34 10
-3 5 -1 19 6 31 9 17 8 23 -2 30 -17 10 -63 12 -72 2z"/>
<path d="M6357 9913 c-15 -14 -6 -43 19 -62 34 -27 44 -26 44 2 0 45 -12 67
-34 67 -13 0 -26 -3 -29 -7z"/>
<path d="M6180 9871 c0 -28 22 -61 39 -61 11 0 31 47 31 70 0 16 -7 20 -35 20
-32 0 -35 -2 -35 -29z"/>
<path d="M6555 9824 c-9 -9 -14 -23 -11 -31 3 -8 6 -17 6 -19 0 -2 11 -4 25
-4 26 0 50 32 41 56 -7 19 -41 18 -61 -2z"/>
<path d="M6360 9721 c-18 -34 -12 -61 16 -71 39 -15 42 -13 49 31 8 46 9 44
-27 53 -21 5 -30 2 -38 -13z"/>
<path d="M6548 9696 c-25 -19 -22 -43 7 -62 31 -20 55 -12 55 20 0 54 -25 71
-62 42z"/>
<path d="M6220 9667 c0 -45 35 -59 63 -25 27 32 18 52 -26 56 -36 3 -37 2 -37
-31z"/>
<path d="M6424 9476 c-17 -9 -19 -16 -13 -34 10 -27 31 -36 64 -28 31 8 32 32
3 57 -26 21 -26 21 -54 5z"/>
<path d="M6561 9464 c-14 -10 -21 -26 -21 -46 0 -29 2 -30 33 -24 55 11 75 60
31 77 -14 5 -29 2 -43 -7z"/>
<path d="M6248 9442 c-17 -18 -10 -53 12 -67 26 -16 41 53 17 74 -11 8 -18 7
-29 -7z"/>
<path d="M6421 9303 c-10 -23 -9 -29 8 -46 19 -20 19 -20 51 3 l31 22 -22 24
c-29 31 -53 30 -68 -3z"/>
<path d="M6104 9225 c-6 -25 17 -75 36 -75 15 0 39 41 33 59 -7 20 -32 41 -50
41 -7 0 -15 -11 -19 -25z"/>
<path d="M6542 9238 c-20 -20 -14 -55 11 -62 12 -3 25 -6 28 -6 11 0 31 58 24
69 -8 15 -48 14 -63 -1z"/>
<path d="M6288 9223 c-32 -8 -19 -58 17 -65 26 -4 47 48 25 62 -8 6 -17 9 -20
9 -3 -1 -13 -3 -22 -6z"/>
<path d="M6436 9144 c-10 -26 -7 -51 8 -63 11 -9 20 -7 42 13 28 24 29 24 10
45 -23 25 -51 27 -60 5z"/>
<path d="M5340 9097 c0 -39 20 -55 63 -50 27 4 37 10 37 23 0 40 -11 50 -56
50 -39 0 -44 -2 -44 -23z"/>
<path d="M5523 9030 c-31 -25 -30 -58 3 -71 31 -11 30 -12 38 26 4 19 2 37 -6
47 -12 16 -15 16 -35 -2z"/>
<path d="M6112 9038 c-16 -16 -15 -29 7 -57 15 -20 21 -22 39 -12 26 14 37 48
22 66 -15 18 -52 19 -68 3z"/>
<path d="M5120 9000 c0 -5 -7 -10 -15 -10 -10 0 -15 -11 -15 -35 0 -20 5 -35
11 -35 7 0 17 -7 23 -16 10 -14 15 -10 31 25 17 40 17 42 0 61 -20 22 -35 26
-35 10z"/>
<path d="M6493 8983 c-7 -2 -13 -15 -13 -29 0 -17 7 -25 25 -30 38 -9 55 2 55
36 0 26 -3 30 -27 29 -16 0 -34 -3 -40 -6z"/>
<path d="M6242 8958 c-16 -8 -21 -17 -16 -32 15 -51 58 -57 70 -10 12 48 -8
64 -54 42z"/>
<path d="M5765 8926 c-18 -28 -11 -53 18 -62 23 -7 51 21 42 44 -3 8 -5 20 -5
28 0 23 -38 16 -55 -10z"/>
<path d="M5315 8892 c-11 -31 -3 -44 41 -63 25 -12 47 -19 50 -17 2 3 7 18 10
35 5 26 2 33 -17 45 -31 17 -77 17 -84 0z"/>
<path d="M5994 8902 c-6 -4 -14 -17 -18 -29 -5 -16 -2 -23 15 -28 28 -9 43 8
35 39 -7 27 -13 31 -32 18z"/>
<path d="M6362 8848 c-15 -15 -16 -54 -2 -63 6 -4 24 -4 40 0 25 5 30 12 30
35 0 37 -42 54 -68 28z"/>
<path d="M4892 8748 c-7 -7 -12 -22 -12 -35 0 -21 5 -23 46 -23 43 0 46 2 40
23 -3 12 -6 28 -6 35 0 15 -52 16 -68 0z"/>
<path d="M6493 8754 c-7 -3 -13 -18 -13 -32 0 -20 8 -31 28 -40 24 -11 29 -10
45 9 27 33 19 64 -18 66 -16 1 -36 0 -42 -3z"/>
<path d="M6105 8710 c-7 -23 10 -50 31 -50 13 0 34 38 34 61 0 5 -13 9 -29 9
-21 0 -32 -6 -36 -20z"/>
<path d="M5518 8683 c-23 -6 -24 -58 -3 -67 17 -6 55 13 55 27 0 14 -20 47
-28 46 -4 -1 -15 -3 -24 -6z"/>
<path d="M6292 8658 c3 -29 7 -33 32 -33 32 0 53 23 43 49 -4 11 -18 16 -42
16 -35 0 -36 -1 -33 -32z"/>
<path d="M5890 8645 c0 -28 4 -35 19 -35 11 0 26 -3 35 -6 13 -5 16 2 16 35 0
40 -1 41 -35 41 -33 0 -35 -2 -35 -35z"/>
<path d="M5057 8623 c-13 -12 -7 -40 12 -57 16 -15 22 -15 40 -4 23 14 36 42
26 58 -7 11 -68 14 -78 3z"/>
<path d="M5360 8571 c0 -28 27 -51 58 -51 44 0 55 12 41 43 -11 23 -18 27 -56
27 -36 0 -43 -3 -43 -19z"/>
<path d="M6503 8579 c-51 -19 -47 -79 6 -79 20 0 31 7 39 25 7 14 12 30 12 35
0 16 -34 28 -57 19z"/>
<path d="M5716 8476 c-7 -33 5 -46 42 -46 28 0 38 24 22 55 -18 34 -57 29 -64
-9z"/>
<path d="M4776 8451 c-10 -15 11 -59 33 -71 18 -9 24 -6 41 22 19 31 19 34 3
46 -20 14 -69 16 -77 3z"/>
<path d="M6094 8446 c-6 -16 23 -66 37 -66 5 0 18 14 29 32 15 24 16 34 7 40
-20 13 -67 9 -73 -6z"/>
<path d="M6316 8445 c-11 -29 -7 -55 9 -55 8 0 15 -4 15 -10 0 -5 7 -10 15
-10 19 0 31 48 18 69 -14 22 -49 26 -57 6z"/>
<path d="M6510 8350 c0 -16 -5 -20 -15 -16 -8 3 -15 1 -15 -5 0 -5 7 -12 15
-15 8 -4 15 -12 15 -20 0 -19 59 -19 66 1 11 28 -11 70 -39 73 -22 3 -27 -1
-27 -18z"/>
<path d="M5020 8336 c0 -8 8 -24 18 -37 25 -30 52 -20 52 21 0 28 -3 30 -35
30 -23 0 -35 -5 -35 -14z"/>
<path d="M4560 8262 c0 -7 -7 -12 -15 -12 -10 0 -15 -10 -15 -30 0 -32 7 -38
55 -42 43 -4 45 28 5 67 -16 16 -30 23 -30 17z"/>
<path d="M5432 8258 c-15 -15 -16 -64 -2 -73 15 -9 47 3 54 21 17 44 -22 82
-52 52z"/>
<path d="M4396 8208 c-31 -17 -12 -68 25 -68 10 0 21 12 27 28 8 24 6 29 -13
38 -14 7 -29 8 -39 2z"/>
<path d="M4747 8213 c-13 -12 -7 -40 11 -56 20 -18 47 -23 37 -8 -3 5 4 16 16
25 31 21 18 46 -24 46 -19 0 -37 -3 -40 -7z"/>
<path d="M6330 8181 c0 -10 9 -29 20 -42 17 -21 21 -22 30 -9 5 8 10 27 10 43
0 23 -4 27 -30 27 -23 0 -30 -5 -30 -19z"/>
<path d="M5938 8149 c-21 -22 -23 -40 -6 -57 16 -16 46 -15 64 2 19 20 18 29
-9 54 -27 26 -27 26 -49 1z"/>
<path d="M6504 8135 l-11 -35 33 0 c23 0 37 6 44 21 16 29 5 49 -27 49 -23 0
-30 -6 -39 -35z"/>
<path d="M6170 8110 c0 -32 4 -40 18 -40 19 0 62 34 62 50 0 13 -34 30 -59 30
-18 0 -21 -6 -21 -40z"/>
<path d="M5719 8100 c-11 -6 -14 -19 -11 -40 4 -25 9 -30 32 -30 23 0 30 5 35
30 4 16 4 34 0 40 -8 12 -35 13 -56 0z"/>
<path d="M4385 8052 c-12 -47 52 -100 69 -56 15 38 6 59 -28 70 -32 10 -35 9
-41 -14z"/>
<path d="M4223 8053 c-26 -10 -14 -52 19 -69 30 -15 32 -15 45 2 22 30 15 51
-18 63 -18 6 -32 11 -33 10 -1 0 -7 -3 -13 -6z"/>
<path d="M4530 8015 c0 -9 11 -27 25 -41 24 -24 26 -24 50 -8 45 29 25 64 -37
64 -28 0 -38 -4 -38 -15z"/>
<path d="M4773 8015 c-26 -28 -11 -56 34 -67 23 -6 33 7 33 43 0 12 -7 19 -20
19 -11 0 -20 5 -20 10 0 14 -13 12 -27 -5z"/>
<path d="M6206 7985 c-3 -8 -17 -15 -31 -15 -21 0 -25 -5 -25 -30 0 -28 2 -30
40 -30 40 0 40 0 40 39 0 41 -14 62 -24 36z"/>
<path d="M6290 7975 c-32 -34 -23 -59 23 -63 39 -3 44 5 31 55 -9 32 -29 35
-54 8z"/>
<path d="M6527 7993 c-4 -3 -7 -24 -7 -45 0 -42 9 -46 53 -25 21 9 26 17 22
32 -2 11 -5 26 -5 33 0 12 -51 17 -63 5z"/>
<path d="M5450 7945 c0 -30 3 -35 23 -35 13 0 28 5 35 12 7 7 12 22 12 35 0
20 -5 23 -35 23 -33 0 -35 -2 -35 -35z"/>
<path d="M5922 7938 c-15 -15 -16 -55 -1 -63 32 -21 93 37 66 64 -15 15 -50
14 -65 -1z"/>
<path d="M4207 7903 c-4 -3 -7 -19 -7 -34 0 -34 30 -54 66 -45 20 5 24 11 19
29 -12 38 -59 69 -78 50z"/>
<path d="M4388 7875 c-8 -19 -8 -28 2 -40 30 -36 82 -3 62 40 -7 15 -20 25
-32 25 -12 0 -25 -10 -32 -25z"/>
<path d="M5713 7863 c-20 -7 -15 -51 8 -74 27 -27 44 -20 44 21 0 34 -28 62
-52 53z"/>
<path d="M6493 7849 c-23 -8 -40 -50 -28 -68 3 -6 24 -11 46 -11 38 0 39 1 39
35 0 40 -23 57 -57 44z"/>
<path d="M4540 7814 c0 -15 3 -25 6 -21 3 3 16 -6 28 -20 21 -24 23 -25 40 -8
10 10 16 29 14 44 -3 23 -8 26 -45 29 -41 3 -43 2 -43 -24z"/>
<path d="M6070 7812 c0 -39 22 -57 50 -42 15 8 20 19 18 38 -2 22 -9 28 -35
30 -31 3 -33 1 -33 -26z"/>
<path d="M4060 7794 c0 -21 3 -34 7 -31 3 4 14 0 24 -9 17 -15 19 -15 35 1 27
27 8 69 -34 73 -31 3 -32 2 -32 -34z"/>
<path d="M6250 7818 c0 -6 -9 -22 -21 -34 -27 -29 -18 -64 16 -64 27 0 66 47
48 58 -6 4 -13 17 -17 30 -8 23 -26 31 -26 10z"/>
<path d="M6356 7785 c-9 -36 -1 -45 40 -45 32 0 34 2 34 35 0 33 -2 35 -34 35
-28 0 -35 -4 -40 -25z"/>
<path d="M5940 7770 c-27 -27 -25 -43 10 -63 29 -17 29 -17 46 8 14 21 15 31
6 50 -14 30 -35 32 -62 5z"/>
<path d="M3767 7753 c-12 -11 -8 -30 12 -54 20 -24 20 -24 35 -4 20 26 20 51
0 59 -20 8 -39 8 -47 -1z"/>
<path d="M4190 7717 c0 -31 29 -57 63 -57 25 0 27 3 27 40 l0 40 -45 0 c-41 0
-45 -2 -45 -23z"/>
<path d="M4862 7715 c-20 -44 -16 -57 20 -53 39 4 49 30 22 59 -22 25 -28 24
-42 -6z"/>
<path d="M5496 7688 c-21 -12 -21 -52 0 -69 14 -11 19 -10 35 10 11 13 19 31
19 41 0 21 -30 31 -54 18z"/>
<path d="M3890 7661 c0 -38 23 -57 57 -45 14 5 31 17 37 27 15 24 -15 47 -61
47 -30 0 -33 -3 -33 -29z"/>
<path d="M4066 7674 c-20 -20 -20 -22 4 -61 26 -43 50 -35 50 16 0 34 -14 61
-31 61 -4 0 -15 -7 -23 -16z"/>
<path d="M4357 7673 c11 -31 25 -43 49 -43 28 0 35 10 27 38 -4 18 -13 22 -44
22 -32 0 -37 -3 -32 -17z"/>
<path d="M5690 7656 c-6 -8 -10 -25 -8 -38 4 -32 53 -38 63 -9 15 48 -25 82
-55 47z"/>
<path d="M4576 7644 c-7 -17 5 -44 28 -63 12 -10 17 -8 26 9 18 33 5 70 -24
70 -13 0 -27 -7 -30 -16z"/>
<path d="M6263 7640 c-28 -45 -2 -90 32 -56 20 19 16 70 -5 74 -8 1 -21 -7
-27 -18z"/>
<path d="M6347 7653 c-4 -3 -7 -24 -7 -45 0 -37 1 -38 35 -38 35 0 35 0 35 45
0 43 -1 45 -28 45 -16 0 -32 -3 -35 -7z"/>
<path d="M6478 7643 c-36 -4 -38 -6 -38 -39 0 -34 0 -34 44 -34 36 0 46 4 51
20 5 15 -10 65 -18 58 -1 -1 -19 -3 -39 -5z"/>
<path d="M3766 7608 c-19 -27 -20 -48 -3 -71 11 -16 14 -16 35 -2 12 9 22 27
22 40 0 56 -27 72 -54 33z"/>
<path d="M4360 7537 c0 -39 15 -57 47 -57 18 0 23 6 23 26 0 39 -18 64 -45 64
-22 0 -25 -5 -25 -33z"/>
<path d="M4063 7553 c-30 -6 -30 -34 1 -70 l24 -28 21 25 c22 27 26 40 12 40
-5 0 -13 9 -16 20 -3 11 -9 19 -13 19 -4 -1 -17 -4 -29 -6z"/>
<path d="M4228 7553 c-23 -4 -28 -9 -28 -33 0 -30 15 -40 61 -40 19 0 29 5 29
14 0 22 -19 66 -27 65 -5 -1 -20 -4 -35 -6z"/>
<path d="M4497 7537 c-23 -23 -15 -72 9 -63 9 3 27 6 40 6 19 0 24 5 24 24 0
42 -45 63 -73 33z"/>
<path d="M3875 7500 c-9 -14 22 -60 39 -60 8 0 21 -3 29 -6 19 -7 32 43 16 62
-13 16 -75 19 -84 4z"/>
<path d="M3750 7479 c-25 -46 21 -100 55 -65 21 21 19 63 -4 76 -28 15 -39 13
-51 -11z"/>
<path d="M4020 7398 c0 -36 15 -50 46 -46 25 2 29 8 32 36 3 31 2 32 -37 32
-36 0 -41 -3 -41 -22z"/>
<path d="M4127 7393 c-4 -3 -7 -19 -7 -35 0 -23 4 -28 25 -28 35 0 50 32 24
53 -21 18 -32 21 -42 10z"/>
<path d="M3735 7287 c-10 -30 -8 -35 13 -52 24 -18 25 -18 43 6 11 13 18 35
17 49 -2 20 -9 26 -33 28 -26 2 -31 -1 -40 -31z"/>
<path d="M3867 7293 c-4 -3 -7 -19 -7 -34 0 -29 23 -41 60 -32 25 7 28 58 4
67 -21 8 -49 8 -57 -1z"/>
<path d="M3706 7154 c-22 -21 -20 -27 13 -47 45 -26 67 -22 75 14 3 17 3 35 0
40 -9 15 -71 10 -88 -7z"/>
<path d="M3779 10759 c-10 -20 -9 -25 11 -41 28 -23 33 -23 54 1 26 29 17 55
-21 59 -24 2 -34 -2 -44 -19z"/>
<path d="M4020 10686 c0 -34 2 -36 35 -36 63 0 59 62 -4 68 -30 3 -31 2 -31
-32z"/>
<path d="M3873 10669 c3 -22 7 -43 10 -45 11 -12 60 11 69 32 15 32 -5 54 -50
54 l-35 0 6 -41z"/>
<path d="M4674 10696 c-8 -20 12 -53 36 -61 28 -9 52 13 48 44 -3 22 -9 26
-41 29 -26 2 -39 -1 -43 -12z"/>
<path d="M4423 10684 c3 -4 1 -16 -4 -27 -9 -16 -6 -23 17 -42 l29 -23 20 22
c17 17 19 26 11 49 -9 22 -16 27 -45 27 -19 0 -31 -3 -28 -6z"/>
<path d="M3756 10665 c-21 -22 -20 -48 2 -68 27 -24 38 -21 52 14 21 51 -18
90 -54 54z"/>
<path d="M4251 10641 c-10 -7 -11 -13 -2 -30 7 -11 8 -21 4 -21 -4 -1 10 -7
32 -15 36 -13 42 -13 58 3 22 23 13 50 -20 63 -30 11 -54 11 -72 0z"/>
<path d="M4537 10643 c-4 -3 -7 -24 -7 -45 l0 -38 45 0 46 0 -7 38 c-4 20 -9
40 -11 45 -5 9 -57 9 -66 0z"/>
<path d="M4117 10623 c-12 -12 -7 -50 7 -63 8 -6 25 -10 38 -8 18 2 24 10 26
34 3 26 -1 33 -20 38 -30 8 -43 8 -51 -1z"/>
<path d="M3972 10580 c-34 -43 -13 -69 56 -70 18 0 22 5 22 33 0 32 -25 68
-46 66 -5 0 -19 -13 -32 -29z"/>
<path d="M3810 10546 c-6 -8 -10 -25 -8 -38 2 -19 9 -23 38 -23 29 0 36 5 44
28 8 22 7 30 -4 37 -22 14 -56 12 -70 -4z"/>
<path d="M4217 10533 c-2 -5 -7 -20 -11 -35 -5 -23 -2 -27 26 -37 59 -21 83
-9 71 37 -7 29 -74 56 -86 35z"/>
<path d="M4375 10491 c-4 -21 -1 -35 12 -50 23 -28 26 -27 46 14 21 44 13 65
-23 65 -23 0 -30 -5 -35 -29z"/>
<path d="M4076 10478 c-21 -29 -20 -58 2 -74 25 -20 37 -17 50 11 13 28 16 73
5 62 -3 -4 -14 0 -24 9 -16 14 -18 13 -33 -8z"/>
<path d="M3921 10459 c-17 -7 -21 -14 -16 -27 4 -9 8 -23 8 -29 1 -32 79 -26
97 7 8 15 6 24 -10 40 -22 22 -42 24 -79 9z"/>
<path d="M4157 10383 c-15 -14 -6 -53 14 -63 39 -21 61 7 43 54 -6 16 -45 22
-57 9z"/>
<path d="M3757 10373 c-12 -11 -8 -50 6 -61 23 -19 72 0 75 30 3 21 -2 26 -29
32 -39 8 -44 8 -52 -1z"/>
<path d="M3852 10273 c2 -31 8 -39 31 -47 29 -11 57 -1 65 22 6 19 -45 62 -73
62 -24 0 -26 -3 -23 -37z"/>
<path d="M4030 10303 c0 -7 -6 -13 -14 -13 -8 0 -17 -4 -21 -10 -10 -16 6 -58
24 -63 24 -6 61 10 61 27 0 18 -49 76 -50 59z"/>
<path d="M2957 9763 c-11 -19 -17 -63 -8 -63 5 0 11 -10 14 -22 l6 -22 26 24
c24 23 25 24 7 53 -18 31 -37 44 -45 30z"/>
<path d="M3128 9746 c-15 -34 -4 -56 29 -56 44 0 56 13 48 49 -6 26 -11 31
-36 31 -21 0 -32 -7 -41 -24z"/>
<path d="M2722 9735 c-18 -39 -15 -45 23 -45 28 0 35 4 35 19 0 54 -38 70 -58
26z"/>
<path d="M3561 9743 c-13 -25 21 -69 60 -77 24 -5 35 -1 49 16 22 27 16 44
-21 63 -38 20 -76 19 -88 -2z"/>
<path d="M3330 9724 c-29 -53 34 -84 65 -32 9 16 15 30 13 31 -1 1 -13 8 -25
15 -32 17 -38 15 -53 -14z"/>
<path d="M2308 9729 c-24 -13 -23 -36 1 -49 50 -26 90 3 56 40 -20 22 -32 24
-57 9z"/>
<path d="M2190 9701 c0 -32 22 -56 45 -47 20 7 19 40 -1 60 -25 25 -44 20 -44
-13z"/>
<path d="M1990 9665 c0 -33 2 -35 35 -35 36 0 40 6 29 48 -5 16 -14 22 -35 22
-26 0 -29 -3 -29 -35z"/>
<path d="M2600 9642 c0 -38 24 -60 46 -42 8 8 14 25 12 39 -2 20 -9 27 -30 29
-25 3 -28 0 -28 -26z"/>
<path d="M2420 9627 c0 -13 6 -32 14 -42 14 -19 15 -19 27 7 9 22 9 30 -1 43
-19 22 -40 18 -40 -8z"/>
<path d="M1897 9604 c-4 -4 -7 -20 -7 -35 0 -19 6 -30 21 -34 28 -9 41 6 37
41 -3 28 -34 45 -51 28z"/>
<path d="M2152 9568 c3 -38 6 -43 28 -43 31 0 38 27 16 60 -27 41 -48 32 -44
-17z"/>
<path d="M2716 9565 c-19 -29 -11 -49 24 -58 36 -9 39 68 3 80 -6 2 -18 -8
-27 -22z"/>
<path d="M1751 9556 c-9 -11 -6 -18 15 -35 15 -12 30 -21 34 -21 16 0 31 30
25 50 -8 24 -56 28 -74 6z"/>
<path d="M2320 9501 c0 -53 7 -61 41 -44 26 13 28 17 17 36 -23 46 -58 50 -58
8z"/>
<path d="M1483 9486 c-17 -8 -23 -20 -23 -42 0 -39 17 -54 52 -47 45 9 54 28
32 68 -20 37 -26 39 -61 21z"/>
<path d="M1213 9460 c-35 -32 -40 -40 -22 -40 7 0 17 -7 24 -16 27 -38 87 24
65 67 -14 26 -29 24 -67 -11z"/>
<path d="M1640 9471 c0 -6 -7 -11 -15 -11 -16 0 -18 -12 -9 -48 5 -16 13 -22
28 -20 17 2 21 10 21 42 0 23 -5 41 -12 44 -7 2 -13 -1 -13 -7z"/>
<path d="M1995 9460 c-7 -23 12 -90 25 -90 14 0 40 42 40 64 0 19 -26 45 -47
46 -6 0 -15 -9 -18 -20z"/>
<path d="M2484 9433 c-8 -32 6 -57 34 -61 28 -4 38 32 18 63 -21 33 -44 32
-52 -2z"/>
<path d="M1057 9434 c-4 -4 -7 -18 -7 -31 0 -27 25 -31 34 -6 7 18 -16 48 -27
37z"/>
<path d="M1800 9426 c-18 -23 -8 -61 17 -64 26 -4 39 28 23 58 -13 24 -23 25
-40 6z"/>
<path d="M1326 9375 c-9 -34 -1 -45 34 -45 30 0 44 21 35 51 -4 13 -16 19 -35
19 -22 0 -29 -6 -34 -25z"/>
<path d="M1178 9368 c-32 -11 -36 -37 -10 -61 22 -20 58 -22 65 -4 4 12 -17
78 -25 76 -2 0 -15 -5 -30 -11z"/>
<path d="M1055 9348 c-11 -6 -22 -12 -24 -14 -9 -8 26 -64 40 -64 24 0 49 33
49 63 0 21 -5 27 -22 27 -13 0 -32 -6 -43 -12z"/>
<path d="M1487 9338 c-4 -12 -4 -33 0 -46 4 -18 11 -22 32 -20 32 4 41 41 15
69 -23 25 -40 24 -47 -3z"/>
<path d="M2131 9331 c-20 -15 -22 -21 -12 -39 7 -14 21 -22 36 -22 21 0 25 5
25 29 0 41 -20 54 -49 32z"/>
<path d="M1306 9245 c-8 -33 -1 -45 28 -45 28 0 46 18 46 47 0 19 -5 23 -34
23 -28 0 -35 -4 -40 -25z"/>
<path d="M1616 9254 c-11 -30 -6 -53 14 -59 50 -16 87 27 50 57 -27 22 -56 23
-64 2z"/>
<path d="M992 9218 c-12 -20 -22 -40 -22 -46 0 -14 45 -27 59 -17 15 9 14 58
-2 79 -13 17 -15 16 -35 -16z"/>
<path d="M1164 9235 c-15 -10 -20 -22 -16 -40 5 -29 6 -30 45 -39 23 -5 29 -2
39 18 9 20 8 30 -6 51 -19 29 -33 31 -62 10z"/>
<path d="M1454 9195 c-4 -8 -3 -27 0 -41 6 -22 11 -25 44 -22 31 2 38 7 40 27
4 29 -20 51 -55 51 -13 0 -26 -7 -29 -15z"/>
<path d="M1797 9193 c-4 -3 -7 -21 -7 -40 0 -30 3 -33 28 -33 34 0 52 16 52
46 0 26 -54 46 -73 27z"/>
<path d="M1266 9115 c-9 -37 9 -65 43 -65 23 0 30 5 33 25 3 15 1 25 -6 25 -6
0 -17 9 -24 20 -17 28 -39 25 -46 -5z"/>
<path d="M992 9101 c-19 -14 -20 -19 -9 -41 14 -28 45 -33 60 -9 8 12 5 23 -9
42 -19 24 -21 24 -42 8z"/>
<path d="M1450 9110 c-8 -5 -23 -11 -33 -14 -16 -5 -17 -8 -2 -36 12 -23 22
-30 46 -30 29 0 30 1 27 42 -3 43 -13 53 -38 38z"/>
<path d="M1560 9085 c0 -35 1 -36 33 -33 28 3 32 6 32 33 0 27 -4 30 -32 33
-32 3 -33 2 -33 -33z"/>
<path d="M1110 9086 c-20 -25 -8 -61 20 -64 38 -4 51 10 44 46 -5 25 -12 32
-29 32 -12 0 -28 -7 -35 -14z"/>
<path d="M1732 9004 c6 -55 73 -58 73 -3 0 21 -5 24 -38 27 -37 3 -38 2 -35
-24z"/>
<path d="M1947 9023 c-14 -14 -6 -41 17 -56 22 -15 25 -15 40 2 14 15 14 19 0
39 -15 21 -44 29 -57 15z"/>
<path d="M1510 8945 c0 -18 7 -28 26 -35 35 -14 34 -14 34 25 0 32 -2 35 -30
35 -25 0 -30 -4 -30 -25z"/>
<path d="M1811 8866 c-20 -23 4 -56 39 -56 33 0 50 31 30 55 -16 19 -54 19
-69 1z"/>
<path d="M8427 8843 c-13 -12 -7 -51 9 -57 52 -20 77 1 54 45 -10 18 -50 26
-63 12z"/>
<path d="M8602 8838 c-21 -21 -11 -78 13 -78 16 0 39 55 31 75 -7 18 -27 20
-44 3z"/>
<path d="M8780 8829 c-6 -11 -10 -30 -8 -42 2 -18 11 -23 41 -25 35 -3 37 -2
37 27 0 20 -8 35 -22 45 -29 21 -35 20 -48 -5z"/>
<path d="M8222 8797 c-10 -25 -9 -32 6 -43 23 -18 29 -17 46 8 17 25 7 53 -22
60 -14 4 -22 -3 -30 -25z"/>
<path d="M7654 8776 c-8 -31 3 -66 21 -66 17 0 45 38 45 61 0 35 -57 39 -66 5z"/>
<path d="M7900 8783 c-31 -12 -32 -14 -16 -31 9 -10 16 -24 16 -30 0 -17 46
-15 64 4 41 40 -6 82 -64 57z"/>
<path d="M8070 8767 c0 -56 43 -80 53 -29 3 17 0 33 -10 45 -25 27 -43 21 -43
-16z"/>
<path d="M9142 8723 c3 -34 6 -38 28 -35 32 5 31 3 24 40 -5 25 -12 32 -31 32
-22 0 -24 -4 -21 -37z"/>
<path d="M7096 8688 c-7 -28 42 -79 54 -56 19 34 21 58 6 58 -9 0 -16 5 -16
10 0 20 -38 10 -44 -12z"/>
<path d="M7265 8691 c-3 -10 -1 -29 4 -43 7 -19 16 -24 42 -23 30 0 34 3 37
30 3 19 -2 33 -14 42 -26 19 -62 16 -69 -6z"/>
<path d="M7756 8694 c-11 -28 -6 -65 9 -70 8 -4 26 -3 40 0 34 9 32 40 -4 65
-35 25 -37 25 -45 5z"/>
<path d="M6984 8677 c-3 -9 -4 -26 -2 -39 2 -18 10 -24 37 -26 38 -4 50 8 43
44 -3 15 -11 24 -22 24 -10 0 -25 3 -34 6 -9 4 -18 0 -22 -9z"/>
<path d="M6876 8654 c-11 -41 1 -64 34 -64 26 0 28 3 25 31 -8 58 -47 80 -59
33z"/>
<path d="M7396 8628 c-12 -46 -7 -68 20 -80 30 -14 44 0 44 44 0 49 -52 79
-64 36z"/>
<path d="M7550 8602 c0 -16 6 -36 13 -46 12 -17 15 -16 45 9 38 32 41 50 10
59 -51 13 -68 8 -68 -22z"/>
<path d="M7150 8598 c1 -40 13 -58 40 -58 23 0 28 5 32 30 3 17 2 32 0 35 -11
11 -72 5 -72 -7z"/>
<path d="M6790 8556 c0 -29 4 -36 19 -36 10 0 24 7 32 16 16 20 1 48 -30 52
-18 3 -21 -1 -21 -32z"/>
<path d="M6980 8546 c-10 -31 -6 -66 9 -66 3 0 16 -3 29 -6 19 -5 22 -2 22 19
0 70 -42 107 -60 53z"/>
<path d="M7700 8510 c0 -40 35 -61 44 -26 8 33 -2 56 -25 56 -14 0 -19 -7 -19
-30z"/>
<path d="M7250 8466 c0 -50 16 -63 49 -40 38 27 24 84 -20 84 -28 0 -29 -2
-29 -44z"/>
<path d="M1478 8679 c-27 -15 -22 -46 8 -53 38 -10 64 2 64 29 0 33 -37 45
-72 24z"/>
<path d="M1702 8651 c-8 -4 -12 -19 -10 -32 2 -20 10 -25 41 -27 38 -3 38 -3
35 30 -2 27 -8 33 -28 36 -14 1 -31 -2 -38 -7z"/>
<path d="M2153 8613 c-27 -9 -7 -63 23 -63 6 0 14 13 16 29 4 30 -11 43 -39
34z"/>
<path d="M1917 8549 c-9 -34 10 -61 36 -53 31 9 32 11 21 42 -12 35 -49 42
-57 11z"/>
<path d="M2660 8522 c0 -26 20 -42 53 -42 26 0 29 3 23 23 -3 12 -6 25 -6 30
0 4 -16 7 -35 7 -27 0 -35 -4 -35 -18z"/>
<path d="M2347 8513 c-4 -3 -7 -22 -7 -40 0 -33 2 -34 33 -31 27 2 33 8 35 30
3 22 -2 30 -23 38 -31 12 -30 12 -38 3z"/>
<path d="M3035 8478 c-21 -32 -19 -55 8 -62 41 -11 64 48 27 71 -16 11 -21 9
-35 -9z"/>
<path d="M1530 8382 c0 -52 52 -74 64 -26 8 32 -8 54 -40 54 -20 0 -24 -5 -24
-28z"/>
<path d="M2033 8316 c-27 -13 -29 -33 -7 -64 29 -42 54 -23 54 44 0 36 -8 40
-47 20z"/>
<path d="M1764 8259 c-14 -16 -15 -23 -6 -26 6 -3 12 -12 12 -20 0 -12 7 -14
32 -9 42 8 45 13 27 44 -19 35 -40 38 -65 11z"/>
<path d="M1926 8218 c-3 -7 -7 -33 -11 -57 -3 -24 -14 -56 -25 -71 -19 -27
-19 -28 0 -45 28 -25 46 -13 53 35 3 23 12 49 20 58 20 22 11 69 -14 83 -14 7
-20 6 -23 -3z"/>
<path d="M2465 8213 c-31 -8 -37 -18 -26 -46 12 -31 36 -34 69 -11 46 32 16
72 -43 57z"/>
<path d="M2085 8149 c-8 -36 6 -51 45 -47 49 5 34 78 -15 78 -18 0 -25 -7 -30
-31z"/>
<path d="M2278 8169 c-11 -6 -18 -22 -18 -40 0 -28 2 -30 33 -27 29 3 32 6 32
38 0 37 -16 48 -47 29z"/>
<path d="M1724 8145 c-8 -31 10 -55 40 -55 28 0 46 18 46 46 0 23 -17 34 -56
34 -17 0 -25 -7 -30 -25z"/>
<path d="M2620 8100 c-8 -15 -6 -24 10 -40 11 -11 26 -17 35 -14 17 7 30 47
20 63 -11 18 -54 12 -65 -9z"/>
<path d="M2367 8047 c-18 -30 -18 -32 -1 -44 10 -7 28 -13 41 -13 36 0 32 47
-7 77 -13 10 -19 6 -33 -20z"/>
<path d="M2197 8053 c-4 -3 -7 -24 -7 -45 0 -37 2 -39 27 -36 30 3 39 23 29
64 -6 23 -34 33 -49 17z"/>
<path d="M1990 8002 c0 -42 17 -54 51 -36 20 10 29 22 29 39 0 22 -4 25 -40
25 -37 0 -40 -2 -40 -28z"/>
<path d="M2511 7979 c-40 -33 -7 -92 42 -73 29 11 31 44 6 70 -24 23 -24 23
-48 3z"/>
<path d="M2792 7974 c-5 -9 -7 -27 -4 -40 4 -20 10 -24 43 -24 32 0 41 4 48
23 6 15 4 27 -7 40 -19 21 -68 22 -80 1z"/>
<path d="M2297 7903 c-4 -3 -7 -24 -7 -45 0 -37 1 -38 35 -38 32 0 35 3 35 28
0 40 -42 76 -63 55z"/>
<path d="M2658 7884 c-14 -31 -1 -57 31 -62 18 -3 21 2 21 30 0 56 -32 76 -52
32z"/>
<path d="M2425 7820 c-17 -54 31 -81 61 -35 13 20 14 28 4 40 -18 22 -57 19
-65 -5z"/>
<path d="M2866 7808 c-19 -27 -20 -34 -3 -36 6 -1 24 -4 40 -8 26 -6 27 -5 27
30 0 32 -3 36 -24 36 -14 0 -32 -10 -40 -22z"/>
<path d="M3307 7763 c-4 -3 -7 -21 -7 -39 0 -43 30 -62 54 -35 22 24 20 39 -6
62 -25 20 -31 22 -41 12z"/>
<path d="M2560 7718 c0 -37 14 -50 51 -46 30 3 34 7 37 36 3 32 3 32 -42 32
-41 0 -46 -2 -46 -22z"/>
<path d="M2767 7670 c-8 -32 3 -58 28 -63 19 -3 26 2 36 24 16 39 6 59 -30 59
-20 0 -30 -6 -34 -20z"/>
<path d="M3196 7648 c-13 -49 -8 -58 29 -58 33 0 35 2 35 34 0 26 -5 35 -22
40 -34 9 -35 8 -42 -16z"/>
<path d="M2852 7538 c3 -31 6 -33 45 -36 38 -3 43 -1 49 22 9 36 -2 46 -52 46
-45 0 -45 0 -42 -32z"/>
<path d="M3068 7553 c-9 -10 -19 -28 -22 -40 -6 -19 -2 -25 20 -33 31 -12 40
-6 49 30 4 18 1 31 -13 43 -18 16 -20 16 -34 0z"/>
<path d="M9690 8322 c-12 -38 -22 -50 -52 -65 -31 -15 -38 -24 -38 -47 0 -23
5 -29 32 -34 26 -5 37 -1 59 20 56 53 75 127 41 157 -10 10 -20 17 -23 17 -2
0 -11 -21 -19 -48z"/>
<path d="M9786 8227 c-12 -9 -17 -23 -14 -47 4 -41 23 -48 57 -22 19 16 22 24
16 50 -7 35 -28 41 -59 19z"/>
<path d="M9494 8139 c-16 -18 -49 -41 -74 -52 -25 -11 -56 -32 -70 -47 -19
-21 -60 -39 -172 -75 -81 -25 -179 -62 -218 -81 -40 -19 -87 -34 -107 -34 -19
0 -78 -9 -131 -19 -54 -10 -130 -22 -171 -25 -41 -4 -123 -17 -183 -31 -144
-33 -221 -39 -292 -26 -41 8 -63 8 -72 0 -7 -6 -28 -7 -48 -4 -29 6 -37 4 -43
-10 -10 -27 28 -52 91 -59 l55 -7 -6 -34 c-3 -19 -1 -48 5 -64 10 -29 9 -32
-21 -47 -18 -9 -61 -47 -97 -85 -42 -45 -73 -69 -87 -69 -13 0 -53 26 -95 63
-71 62 -125 97 -149 97 -6 0 -34 21 -63 46 -57 52 -117 83 -159 84 -25 0 -27
-3 -22 -22 13 -44 35 -68 61 -68 17 0 23 -4 18 -12 -5 -8 -2 -9 9 -5 11 4 23
-4 38 -24 14 -20 51 -44 105 -69 60 -28 103 -57 156 -107 l73 -68 -3 -72 c-5
-95 17 -169 63 -214 26 -26 35 -42 35 -69 0 -19 7 -60 15 -90 19 -71 19 -143
-1 -255 -25 -144 -17 -202 50 -339 31 -64 56 -121 56 -125 0 -5 15 -18 33 -30
17 -11 46 -30 62 -41 37 -24 95 -27 95 -5 0 22 -45 65 -67 65 -17 0 -108 138
-158 238 -24 50 -30 156 -12 227 8 33 18 94 22 135 10 126 24 178 56 215 17
19 43 68 58 111 16 44 36 81 47 87 10 5 47 38 81 73 35 35 69 64 75 64 7 0 20
13 28 29 11 21 45 45 125 87 118 62 144 67 323 65 64 -1 70 5 52 39 -16 29
-77 41 -172 34 -73 -6 -92 -3 -159 20 -41 14 -87 26 -100 26 -41 0 -57 21 -64
81 -7 53 -6 57 17 62 12 4 42 7 66 7 23 0 58 6 76 14 21 9 37 11 43 5 6 -6 21
-4 39 5 16 7 82 19 147 25 92 8 124 15 144 31 14 11 36 20 48 20 12 0 42 9 66
19 38 16 99 33 272 73 22 5 37 15 37 23 0 9 10 15 23 15 15 0 27 11 37 33 11
24 23 33 45 35 16 2 47 19 67 38 21 19 47 34 57 34 21 0 31 19 31 61 0 25 -4
29 -28 29 -19 0 -38 -11 -58 -31z m-1171 -721 c15 -20 17 -30 8 -44 -6 -11
-11 -14 -11 -7 0 6 -26 21 -57 33 -71 26 -83 36 -83 65 l0 23 62 -22 c37 -13
70 -33 81 -48z m-201 20 c-3 -29 60 -93 103 -104 44 -11 24 -53 -50 -103 -37
-25 -47 -28 -51 -16 -8 20 13 45 37 45 24 0 25 36 2 62 -23 26 -51 23 -59 -7
-3 -14 -4 -32 0 -40 4 -10 -1 -15 -14 -15 -10 0 -24 -8 -29 -17 -10 -16 -14
-14 -41 17 -29 34 -31 35 -45 15 -15 -19 -13 -69 4 -87 8 -9 51 2 51 13 0 25
23 4 41 -37 18 -39 19 -50 8 -75 -16 -41 -36 -32 -53 25 -8 23 -29 8 -46 -34
-10 -24 -16 -28 -30 -20 -49 26 -51 128 -5 243 32 79 43 89 51 49 7 -34 36
-47 65 -29 23 14 24 33 4 80 -15 36 -15 37 12 51 36 20 49 15 45 -16z"/>
<path d="M9696 8101 c-27 -28 -28 -33 -16 -56 8 -15 19 -24 28 -20 7 3 19 5
27 5 7 0 15 8 18 18 2 9 8 25 12 35 5 11 3 17 -5 17 -7 0 -18 7 -24 15 -10 14
-15 12 -40 -14z"/>
<path d="M9805 7980 c-9 -40 0 -50 45 -50 47 0 56 12 40 51 -10 24 -18 29 -45
29 -29 0 -34 -4 -40 -30z"/>
<path d="M9570 7965 c0 -8 -7 -15 -15 -15 -9 0 -15 -9 -15 -25 0 -17 5 -25 18
-25 10 0 23 -5 29 -11 19 -19 43 -2 43 30 0 20 -8 35 -22 45 -28 20 -38 20
-38 1z"/>
<path d="M7073 7943 c-7 -2 -13 -14 -13 -24 0 -32 19 -59 35 -53 8 4 39 -3 68
-14 28 -12 94 -28 145 -37 51 -8 110 -24 130 -34 29 -14 65 -19 162 -22 114
-4 125 -2 128 14 7 36 -26 57 -92 57 -97 0 -203 22 -411 84 -122 37 -130 38
-152 29z"/>
<path d="M9420 7894 c-9 -3 -21 -14 -28 -25 -11 -17 -11 -25 3 -45 17 -26 55
-33 55 -10 0 8 5 16 11 18 8 3 6 14 -5 36 -9 18 -18 31 -19 31 -1 -1 -9 -3
-17 -5z"/>
<path d="M9694 7815 c-14 -21 -15 -30 -5 -52 7 -16 15 -23 19 -16 4 6 16 12
27 14 30 6 29 73 -2 77 -15 2 -27 -5 -39 -23z"/>
<path d="M9525 7720 c-4 -6 -4 -27 -1 -46 6 -28 11 -34 31 -34 36 0 67 34 56
62 -6 17 -17 24 -44 26 -19 2 -38 -2 -42 -8z"/>
<path d="M9800 7702 c-31 -5 -50 -20 -50 -40 0 -24 30 -51 48 -45 67 24 68 95
2 85z"/>
<path d="M9384 7628 c13 -64 44 -76 68 -25 21 44 13 57 -34 57 -40 0 -40 0
-34 -32z"/>
<path d="M9653 7563 c-16 -3 -23 -11 -23 -28 0 -27 26 -45 64 -45 33 0 41 15
26 51 -12 28 -20 31 -67 22z"/>
<path d="M9510 7460 c0 -23 5 -31 24 -36 47 -11 68 -2 71 34 l3 32 -49 0 c-48
0 -49 -1 -49 -30z"/>
<path d="M9782 7408 c-17 -17 -15 -67 4 -75 8 -3 26 -1 40 5 39 19 27 82 -16
82 -9 0 -21 -5 -28 -12z"/>
<path d="M9640 7281 c0 -40 11 -51 51 -51 40 0 44 5 33 48 -5 18 -13 22 -45
22 -32 0 -39 -4 -39 -19z"/>
<path d="M9743 7160 c-42 -17 -21 -80 26 -80 24 0 31 6 40 31 18 51 -10 71
-66 49z"/>
<path d="M8556 6984 c-19 -50 8 -162 50 -205 66 -69 87 -9 29 81 -20 32 -35
67 -35 85 0 35 -34 65 -44 39z"/>
<path d="M9750 6910 c-37 -37 -21 -83 29 -84 29 -1 31 2 31 32 0 36 -15 72
-30 72 -6 0 -19 -9 -30 -20z"/>
<path d="M8296 6865 c-3 -9 -6 -30 -6 -46 0 -26 3 -29 30 -29 24 0 33 -6 41
-27 25 -66 75 -96 182 -109 l57 -6 0 29 c0 29 -3 31 -74 52 -85 24 -129 57
-148 106 -7 22 -19 35 -29 35 -10 0 -24 3 -32 6 -8 3 -17 -2 -21 -11z"/>
<path d="M8860 6813 c0 -10 11 -42 25 -71 38 -82 32 -116 -21 -131 -19 -5 -32
-17 -38 -34 -12 -34 -5 -40 48 -40 l44 0 6 -46 c8 -58 39 -111 66 -111 30 0
26 54 -11 120 -29 54 -30 55 -18 127 14 86 7 132 -27 173 -29 34 -74 42 -74
13z"/>
<path d="M8733 6737 c-29 -13 -63 -83 -63 -130 0 -26 6 -40 22 -51 38 -27 55
-20 56 20 1 22 14 56 33 85 24 38 29 52 20 63 -16 20 -43 25 -68 13z"/>
<path d="M8560 6550 c-25 -5 -58 -6 -75 -4 -16 2 -36 0 -44 -5 -11 -7 -10 -12
7 -29 11 -11 21 -25 24 -32 3 -10 28 -11 106 -5 l102 7 0 33 c0 45 -23 52
-120 35z"/>
<path d="M7630 6504 l0 -35 43 3 c39 3 42 5 45 36 3 32 3 32 -42 32 -46 0 -46
0 -46 -36z"/>
<path d="M9677 6522 c-23 -25 -22 -69 2 -77 43 -13 60 15 45 73 -8 27 -25 28
-47 4z"/>
<path d="M9103 6481 c-20 -25 -20 -30 -8 -48 21 -30 53 -35 66 -12 14 28 8 59
-16 74 -18 11 -23 10 -42 -14z"/>
<path d="M8127 6468 c-3 -18 -4 -63 -2 -101 l4 -67 74 -88 c41 -48 85 -97 98
-109 32 -29 147 -93 168 -93 9 0 25 -10 35 -21 16 -19 24 -21 78 -15 76 9 85
13 92 39 6 24 -8 37 -43 37 -35 0 -159 39 -215 67 -63 32 -137 102 -167 158
l-24 44 26 28 c34 37 59 75 59 89 0 20 -30 24 -67 9 -44 -18 -53 -19 -53 -2 0
13 -40 57 -52 57 -3 0 -8 -15 -11 -32z"/>
<path d="M8684 6408 c-9 -18 -41 -68 -71 -110 -29 -42 -60 -96 -68 -119 -14
-38 -14 -43 2 -55 10 -7 23 -14 28 -14 9 0 86 124 125 199 7 14 25 35 41 49
32 26 39 66 13 76 -34 13 -54 5 -70 -26z"/>
<path d="M7564 6314 c-8 -41 4 -57 36 -52 36 5 47 31 27 62 -26 39 -55 34 -63
-10z"/>
<path d="M7734 6336 c-3 -8 -4 -22 -2 -32 4 -22 53 -58 67 -50 15 9 14 69 -1
84 -17 17 -57 15 -64 -2z"/>
<path d="M9529 6338 c0 -2 -1 -17 -2 -35 -2 -28 1 -32 31 -38 42 -8 47 -4 46
37 -1 31 -3 33 -37 36 -21 2 -37 2 -38 0z"/>
<path d="M9006 6263 c9 -50 18 -59 49 -45 34 16 33 53 -2 70 -46 21 -55 16
-47 -25z"/>
<path d="M7712 6168 c-14 -14 -16 -67 -3 -87 14 -23 39 -5 46 33 5 25 3 40 -8
51 -19 18 -20 18 -35 3z"/>
<path d="M9410 6140 c0 -38 2 -40 30 -40 23 0 33 6 42 24 16 37 4 56 -37 56
-34 0 -35 -1 -35 -40z"/>
<path d="M7915 6018 c-3 -9 -5 -29 -3 -45 2 -24 8 -28 36 -31 30 -3 32 -2 32
31 0 39 -26 70 -40 48 -6 -11 -9 -11 -13 0 -4 11 -6 10 -12 -3z"/>
<path d="M7526 5965 c-15 -23 -15 -27 0 -50 20 -31 34 -31 62 -2 l22 23 -28
27 c-34 33 -36 33 -56 2z"/>
<path d="M8100 5923 c0 -41 13 -63 34 -63 28 0 46 18 46 46 0 16 -8 23 -31 28
-45 9 -49 8 -49 -11z"/>
<path d="M5305 6740 c-38 -11 -73 -20 -77 -20 -4 0 -22 -14 -40 -30 -18 -17
-49 -35 -69 -40 -20 -6 -42 -17 -49 -25 -6 -7 -28 -19 -48 -26 -20 -6 -53 -19
-72 -29 -19 -10 -48 -21 -64 -26 -36 -11 -52 -47 -30 -69 19 -19 68 -20 84 -1
6 8 35 23 63 32 29 9 63 25 76 35 13 11 29 19 35 19 6 0 62 24 124 54 74 36
137 58 183 66 l69 12 71 -49 c69 -46 129 -100 129 -113 0 -4 19 -15 43 -25 23
-10 56 -35 74 -54 18 -20 32 -30 33 -23 0 10 5 10 22 -2 22 -15 58 -22 58 -11
0 3 -7 21 -15 41 -11 28 -27 41 -79 65 -49 23 -74 43 -106 85 -24 30 -50 54
-60 54 -10 0 -41 21 -69 46 -51 46 -52 46 -134 50 -61 3 -100 -1 -152 -16z"/>
<path d="M3783 5934 c-18 -20 -21 -30 -13 -45 6 -10 17 -19 25 -19 7 0 20 -3
29 -6 24 -9 32 40 12 71 -20 31 -25 31 -53 -1z"/>
<path d="M3793 5753 c-45 -30 -15 -83 34 -60 28 12 29 28 6 55 -17 19 -20 20
-40 5z"/>
<path d="M3797 5600 c-24 -24 -14 -58 19 -66 42 -11 76 56 37 70 -10 3 -22 8
-28 10 -5 3 -18 -4 -28 -14z"/>
<path d="M3903 5603 c-9 -22 18 -67 42 -71 13 -2 24 6 32 23 10 22 9 29 -8 46
-23 23 -57 25 -66 2z"/>
<path d="M4049 5469 c-8 -16 -8 -28 1 -48 8 -15 14 -21 17 -13 3 6 16 12 29
12 21 0 24 5 24 35 0 32 -2 35 -30 35 -20 0 -33 -7 -41 -21z"/>
<path d="M3918 5464 c-29 -28 14 -77 63 -72 37 3 47 23 27 51 -14 19 -78 34
-90 21z"/>
<path d="M3810 5410 c0 -5 -7 -10 -15 -10 -17 0 -19 -18 -5 -54 6 -18 17 -26
33 -26 47 0 62 45 27 80 -22 22 -40 26 -40 10z"/>
<path d="M4070 5332 c-18 -14 -21 -25 -16 -45 6 -27 44 -46 65 -32 22 13 6 95
-18 95 -5 0 -19 -8 -31 -18z"/>
<path d="M3937 5273 c-14 -14 -6 -64 13 -83 28 -28 58 -25 72 5 16 35 -4 79
-31 70 -11 -3 -22 -1 -26 5 -7 12 -19 13 -28 3z"/>
<path d="M3798 5225 c-9 -21 -8 -28 7 -45 23 -25 26 -25 48 6 24 32 14 64 -19
64 -16 0 -28 -8 -36 -25z"/>
<path d="M4040 5138 c1 -40 13 -58 41 -58 26 0 29 3 29 35 0 33 -2 35 -35 35
-21 0 -35 -5 -35 -12z"/>
<path d="M4191 5097 c-12 -20 -18 -42 -15 -52 7 -18 51 -38 65 -29 17 10 10
80 -10 98 -18 16 -20 15 -40 -17z"/>
<path d="M3802 5078 c-25 -25 -3 -68 36 -68 10 0 32 44 32 65 0 18 -51 20 -68
3z"/>
<path d="M3925 5070 c-9 -29 20 -70 49 -70 33 0 49 22 37 52 -16 41 -75 53
-86 18z"/>
<path d="M4373 5003 c-21 -8 -15 -51 8 -63 32 -17 49 -5 49 35 0 30 -3 35 -22
34 -13 0 -29 -3 -35 -6z"/>
<path d="M3808 4955 c-9 -21 -8 -27 13 -44 13 -11 26 -15 27 -10 2 5 10 9 18
9 9 0 14 11 14 35 0 32 -2 35 -30 35 -23 0 -33 -6 -42 -25z"/>
<path d="M4040 4931 c0 -41 25 -59 50 -36 27 24 25 51 -2 59 -40 10 -48 7 -48
-23z"/>
<path d="M4537 4954 c-3 -3 -13 -7 -23 -8 -27 -4 -47 -58 -30 -81 12 -17 14
-17 44 1 25 14 32 25 32 51 0 30 -11 49 -23 37z"/>
<path d="M4197 4943 c-4 -3 -7 -19 -7 -34 0 -21 6 -28 27 -33 40 -11 58 28 27
58 -16 17 -36 21 -47 9z"/>
<path d="M3910 4880 c-13 -8 -13 -13 0 -37 13 -23 22 -28 55 -28 34 0 40 3 43
24 2 13 0 27 -5 31 -14 13 -77 20 -93 10z"/>
<path d="M4356 4859 c-30 -24 -35 -69 -10 -94 15 -15 18 -15 35 1 21 19 33 65
24 94 -8 25 -16 25 -49 -1z"/>
<path d="M4043 4853 c-14 -5 -18 -69 -5 -76 4 -2 19 -7 33 -11 23 -5 28 -2 33
19 11 43 -23 80 -61 68z"/>
<path d="M4603 4821 c-13 -20 1 -52 28 -69 29 -18 39 -7 39 43 0 42 -1 44 -28
43 -16 -1 -34 -8 -39 -17z"/>
<path d="M3812 4794 c-21 -14 -21 -17 -7 -45 15 -27 45 -41 45 -19 0 5 7 7 15
4 24 -10 20 53 -4 66 -25 13 -22 13 -49 -6z"/>
<path d="M4186 4749 c-17 -29 -17 -31 1 -44 22 -18 36 -18 51 -3 17 17 15 65
-4 72 -25 10 -29 8 -48 -25z"/>
<path d="M4460 4731 c-15 -30 -12 -56 10 -76 19 -17 21 -17 40 0 13 12 20 31
20 57 0 36 -2 38 -30 38 -19 0 -33 -7 -40 -19z"/>
<path d="M4040 4698 c1 -40 13 -58 40 -58 28 0 40 15 40 51 0 16 -7 19 -40 19
-25 0 -40 -5 -40 -12z"/>
<path d="M4600 4664 c-17 -43 -13 -74 9 -74 11 0 23 -4 26 -10 11 -18 21 -11
38 25 23 48 22 52 -13 70 -40 21 -49 19 -60 -11z"/>
<path d="M4300 4656 c0 -27 35 -76 55 -76 18 0 28 34 20 70 -6 26 -11 30 -41
30 -29 0 -34 -3 -34 -24z"/>
<path d="M4463 4576 c-13 -6 -25 -16 -27 -22 -7 -18 16 -42 44 -46 23 -3 25 0
25 36 0 43 -8 49 -42 32z"/>
<path d="M4752 4578 c-7 -7 -12 -24 -12 -39 0 -22 6 -28 31 -33 24 -4 35 -2
45 11 26 35 10 73 -31 73 -12 0 -26 -5 -33 -12z"/>
<path d="M4166 4555 c-9 -34 -3 -42 35 -47 36 -6 47 11 31 48 -16 34 -58 33
-66 -1z"/>
<path d="M4857 4553 c-12 -11 -8 -81 5 -89 6 -4 14 -2 16 4 2 7 12 12 23 12
15 0 19 7 19 34 0 26 -5 35 -22 40 -29 7 -33 7 -41 -1z"/>
<path d="M4046 4534 c-7 -17 5 -44 28 -63 12 -10 17 -9 25 8 6 11 11 31 11 45
0 22 -5 26 -29 26 -17 0 -31 -6 -35 -16z"/>
<path d="M4328 4523 c-23 -6 -32 -37 -18 -63 14 -26 42 -26 65 0 10 11 13 20
8 20 -6 0 -14 11 -17 25 -4 14 -10 24 -14 24 -4 -1 -15 -3 -24 -6z"/>
<path d="M4580 4510 c0 -20 32 -60 49 -60 42 0 57 51 22 70 -34 18 -71 13 -71
-10z"/>
<path d="M4972 4493 c3 -37 4 -38 43 -38 39 0 40 1 43 38 l3 37 -46 0 -46 0 3
-37z"/>
<path d="M4748 4427 c-21 -8 -28 -18 -28 -39 0 -25 3 -28 34 -28 29 0 34 4 39
27 5 28 -1 54 -12 52 -3 -1 -18 -6 -33 -12z"/>
<path d="M4833 4393 c-31 -21 -29 -35 7 -61 l29 -22 11 20 c15 28 9 74 -10 77
-8 1 -25 -5 -37 -14z"/>
<path d="M5221 4368 c-13 -37 -2 -59 28 -56 22 3 26 8 29 41 3 34 1 37 -23 37
-17 0 -28 -7 -34 -22z"/>
<path d="M4406 4355 c-9 -35 -1 -45 35 -45 27 0 29 3 29 35 0 32 -3 35 -29 35
-23 0 -30 -6 -35 -25z"/>
<path d="M4570 4356 c0 -24 39 -82 40 -58 0 6 7 12 15 12 10 0 15 11 15 35 0
33 -2 35 -35 35 -30 0 -35 -3 -35 -24z"/>
<path d="M4973 4343 c-10 -28 -35 -53 -52 -53 -9 0 -22 -4 -30 -9 -12 -8 -12
-13 3 -35 12 -20 25 -26 51 -26 24 0 35 5 35 14 0 8 16 27 35 42 42 31 45 61
9 74 -35 14 -44 13 -51 -7z"/>
<path d="M5123 4340 c-19 -8 -43 -38 -43 -54 0 -8 62 -36 82 -36 26 0 32 23
18 65 -12 36 -20 40 -57 25z"/>
<path d="M4026 6297 c23 -74 96 -128 228 -168 56 -17 106 -36 111 -43 21 -25
60 -46 86 -46 30 0 63 30 42 37 -7 3 -13 10 -13 17 0 13 -41 36 -64 36 -6 0
-37 15 -68 34 -30 18 -75 36 -99 40 -51 8 -119 45 -146 80 -10 13 -33 26 -51
30 -31 5 -33 4 -26 -17z"/>
<path d="M7093 6291 c-34 -44 -284 -161 -343 -161 -17 0 -30 -4 -30 -9 0 -5
-17 -12 -37 -16 -21 -4 -71 -17 -113 -30 -41 -13 -109 -29 -150 -35 -84 -13
-200 -45 -243 -66 -29 -14 -180 -20 -224 -8 -37 10 -27 40 33 105 57 62 66 92
33 112 -22 14 -108 -40 -109 -68 -1 -36 -47 -121 -76 -142 -16 -11 -60 -30
-99 -43 -119 -39 -161 -65 -215 -134 -51 -65 -58 -69 -168 -103 -60 -19 -66
-19 -110 -4 -44 15 -101 64 -102 87 0 7 -9 14 -19 17 -11 2 -31 24 -46 47 -18
28 -31 40 -41 36 -9 -3 -18 -6 -20 -6 -2 0 -4 -13 -4 -28 0 -23 21 -49 103
-130 141 -138 172 -147 294 -87 39 19 75 35 80 35 4 0 36 28 69 63 117 119
222 156 469 164 88 3 164 9 170 14 5 5 21 9 36 9 15 0 29 6 32 14 6 16 83 26
214 29 68 2 85 5 105 24 12 12 43 26 67 32 24 5 47 14 50 18 10 15 41 23 66
17 20 -5 22 -10 18 -45 -5 -32 -3 -39 11 -39 18 0 56 34 56 51 0 6 -9 13 -20
16 -27 7 -25 22 5 33 14 5 49 25 77 45 29 19 56 35 59 35 4 0 24 -18 46 -39
28 -28 37 -44 31 -55 -4 -8 -4 -26 2 -41 15 -40 13 -45 -21 -45 -31 0 -32 -1
-26 -39 4 -33 1 -43 -19 -60 -25 -22 -28 -30 -18 -55 7 -19 63 -22 65 -3 1 6
2 30 3 52 1 35 4 40 23 37 29 -4 34 8 22 53 -8 26 -7 41 0 48 8 8 11 8 11 -1
0 -7 5 -12 12 -12 6 0 8 3 5 6 -3 4 -2 15 3 25 10 18 -5 42 -31 51 -9 3 -9 9
0 25 17 33 13 49 -14 61 -14 6 -25 16 -25 22 0 5 30 25 68 42 54 27 68 38 70
59 2 19 -3 28 -23 37 -34 16 -37 15 -62 -17z"/>
<path d="M4590 6141 c0 -54 -3 -70 -16 -75 -9 -3 -20 -4 -25 0 -14 8 -11 -4 8
-32 9 -14 21 -49 28 -77 14 -64 38 -73 75 -29 l25 30 115 -9 c63 -5 147 -16
185 -24 39 -8 128 -19 199 -26 70 -6 142 -15 160 -20 17 -5 48 -9 68 -9 21 0
38 -4 38 -10 0 -5 11 -10 25 -10 22 0 25 4 25 33 l0 34 -97 27 c-75 20 -138
29 -263 36 -212 13 -217 14 -239 59 -24 45 -53 72 -109 100 -41 21 -62 21 -62
0 0 -5 18 -29 40 -51 22 -23 40 -46 40 -51 0 -16 -101 1 -121 19 -11 10 -19
31 -19 47 0 16 -5 47 -12 68 -9 33 -15 39 -40 39 l-28 0 0 -69z"/>
<path d="M6907 6024 c-12 -13 -8 -41 11 -64 l18 -22 18 26 c9 15 16 35 14 44
-3 17 -48 29 -61 16z"/>
<path d="M6694 5887 c-3 -8 0 -26 6 -41 15 -41 44 -31 48 17 3 34 1 37 -23 37
-14 0 -28 -6 -31 -13z"/>
<path d="M6862 5878 c-18 -18 -14 -56 7 -68 16 -8 23 -4 41 26 17 26 20 38 11
47 -8 8 -11 7 -11 -3 0 -11 -3 -11 -12 -2 -7 7 -15 12 -18 12 -3 0 -11 -5 -18
-12z"/>
<path d="M4636 5843 c-3 -4 -6 -19 -6 -34 0 -22 15 -40 73 -89 79 -68 138
-105 180 -115 25 -7 27 -5 27 22 0 25 -11 38 -77 85 -43 31 -103 74 -134 97
-31 22 -59 37 -63 34z"/>
<path d="M6786 5744 c-8 -30 -1 -41 29 -46 13 -2 24 6 33 25 16 34 9 47 -28
47 -22 0 -29 -6 -34 -26z"/>
<path d="M6927 5738 c3 -15 -6 -38 -27 -66 -36 -50 -33 -72 10 -72 23 0 30 4
30 19 0 11 9 36 21 55 27 46 22 80 -12 84 -23 3 -26 0 -22 -20z"/>
<path d="M6630 5703 c0 -43 12 -56 43 -44 22 9 25 14 18 38 -5 21 -14 29 -34
31 -24 3 -27 0 -27 -25z"/>
<path d="M5597 5623 c-35 -37 -45 -84 -22 -103 15 -13 22 -8 67 38 56 59 60
85 13 90 -23 2 -37 -4 -58 -25z"/>
<path d="M6842 5540 c-26 -24 -27 -30 -9 -54 21 -28 61 -17 65 17 3 26 -12 57
-27 57 -4 0 -17 -9 -29 -20z"/>
<path d="M5185 5458 c-27 -84 -50 -88 -122 -24 -33 30 -60 46 -77 46 -14 0
-26 -3 -26 -6 0 -15 27 -53 64 -89 23 -22 50 -52 61 -67 14 -20 32 -30 62 -34
l43 -7 30 69 c24 53 30 79 28 118 -2 42 -6 51 -23 54 -17 2 -24 -8 -40 -60z"/>
<path d="M5356 5435 c-11 -8 -34 -18 -53 -21 -40 -8 -44 -31 -10 -68 l22 -26
58 21 c53 20 57 24 57 54 0 22 -6 35 -17 39 -10 3 -22 8 -28 11 -5 2 -19 -2
-29 -10z"/>
<path d="M6772 5424 l-23 -22 22 -21 c32 -29 54 -26 69 9 13 32 11 40 -12 44
-7 1 -17 4 -23 7 -5 3 -20 -5 -33 -17z"/>
<path d="M6716 5331 c-10 -11 -16 -30 -14 -43 2 -19 10 -24 40 -26 33 -3 37
-1 43 28 12 54 -33 81 -69 41z"/>
<path d="M6618 5205 c-14 -30 3 -55 37 -55 41 0 48 51 10 68 -34 16 -34 16
-47 -13z"/>
<path d="M6556 5118 c-15 -16 -16 -25 -7 -44 10 -23 41 -34 41 -14 0 5 7 7 15
4 18 -7 21 27 5 57 -13 24 -30 23 -54 -3z"/>
<path d="M6453 5018 c-27 -13 -31 -53 -7 -62 35 -13 64 -6 76 18 22 49 -14 71
-69 44z"/>
<path d="M6352 4947 c-32 -34 -27 -71 11 -75 30 -4 57 12 57 34 0 7 -10 25
-23 39 l-22 26 -23 -24z"/>
<path d="M6256 4895 c-3 -8 -12 -15 -20 -15 -22 0 -28 -16 -15 -43 15 -33 53
-33 68 0 16 34 14 60 -5 67 -21 8 -21 8 -28 -9z"/>
<path d="M6056 4824 c-23 -23 -20 -37 15 -57 37 -20 59 -9 59 29 0 17 -8 28
-26 34 -32 13 -30 13 -48 -6z"/>
<path d="M194 3923 c23 -166 114 -306 176 -273 11 6 34 38 51 72 17 34 43 79
57 100 27 42 31 90 10 111 -31 31 -60 37 -178 37 l-122 0 6 -47z m195 -32 c23
-15 2 -31 -39 -31 -21 0 -42 -5 -45 -10 -8 -13 -25 -3 -25 15 0 23 83 43 109
26z"/>
<path d="M1412 2699 c-4 -13 -6 -50 -4 -81 4 -56 5 -58 55 -94 28 -20 85 -72
126 -115 41 -44 77 -77 79 -74 3 3 10 1 17 -5 7 -6 44 -6 101 0 49 5 133 12
187 15 l97 7 0 47 c0 46 -3 50 -67 113 -83 79 -117 98 -181 98 -36 0 -57 6
-82 25 -19 14 -44 25 -57 25 -12 0 -53 11 -89 25 -37 14 -91 28 -120 31 -50 6
-54 5 -62 -17z m162 -81 c11 -33 14 -88 6 -88 -10 0 -50 72 -50 90 0 14 40 13
44 -2z m154 -74 c2 -1 -8 -14 -23 -28 -21 -22 -24 -29 -15 -46 9 -17 19 -20
48 -18 36 3 37 4 34 42 -3 39 -3 39 29 32 17 -3 38 -6 45 -6 10 0 14 -14 14
-50 0 -45 -2 -50 -22 -50 -13 -1 -52 -2 -88 -3 -63 -3 -66 -2 -97 33 -37 41
-41 60 -13 78 11 7 20 18 20 26 0 12 6 12 33 3 17 -6 33 -12 35 -13z m233 -74
c16 0 10 -38 -7 -44 -28 -11 -34 -6 -34 25 0 24 3 30 16 25 9 -3 20 -6 25 -6z"/>
<path d="M6335 1946 c-50 -22 -60 -40 -46 -85 22 -77 92 -119 230 -142 82 -13
81 -13 74 24 -26 135 -165 245 -258 203z m92 -103 c18 -26 1 -40 -21 -17 -19
18 -21 47 -4 42 6 -2 18 -14 25 -25z"/>
<path d="M3991 1798 c-52 -78 -69 -135 -57 -184 7 -26 8 -27 74 -22 53 4 90
16 177 56 61 27 120 53 131 56 14 4 29 25 42 56 l21 49 -30 26 c-39 32 -49 34
-191 37 l-117 3 -50 -77z m189 -24 c24 -5 24 -6 6 -20 -11 -8 -37 -14 -57 -14
-28 0 -42 -6 -53 -22 -13 -18 -16 -19 -22 -5 -3 9 2 29 11 44 17 30 39 33 115
17z"/>
<path d="M2956 486 c-31 -57 -59 -117 -62 -133 -12 -61 60 -103 177 -103 25 0
50 -7 65 -19 15 -12 49 -22 82 -26 31 -3 66 -10 77 -14 33 -13 45 -2 45 40 0
50 -36 91 -145 162 -67 43 -85 61 -110 108 -33 61 -53 89 -65 89 -5 0 -34 -47
-64 -104z m72 -105 c24 -42 27 -56 13 -47 -5 4 -11 0 -14 -6 -6 -18 -47 20
-47 43 0 23 10 49 19 49 4 0 17 -17 29 -39z m98 -40 c19 -15 21 -20 9 -25 -22
-8 -65 11 -65 29 0 21 27 19 56 -4z"/>
</g>
</svg>
